<mxfile host="www.draw.io" modified="2019-12-11T08:08:05.267Z" agent="Mozilla/5.0 (Macintosh; Intel Mac OS X 10_15_1) AppleWebKit/537.36 (KHTML, like Gecko) Chrome/78.0.3904.108 Safari/537.36" etag="QPyiVBqLfObbtiMprqOY" version="12.3.9" type="github" pages="1">
  <diagram id="2Du5hm9_i0sgRek3Pqke" name="第 1 页">
    <mxGraphModel dx="1250" dy="824" grid="1" gridSize="10" guides="1" tooltips="1" connect="1" arrows="1" fold="1" page="1" pageScale="1" pageWidth="1169" pageHeight="827" math="0" shadow="0">
      <root>
        <mxCell id="0"/>
        <mxCell id="1" parent="0"/>
        <mxCell id="F_HXTdSw7Dljl1ynHM6h-1" value="" style="rounded=1;whiteSpace=wrap;html=1;" vertex="1" parent="1">
          <mxGeometry x="70" y="160" width="1370" height="230" as="geometry"/>
        </mxCell>
        <mxCell id="OFxEvMyeNEJS5PdYJFAr-1" value="" style="shape=datastore;whiteSpace=wrap;html=1;" parent="1" vertex="1">
          <mxGeometry x="110" y="240" width="60" height="60" as="geometry"/>
        </mxCell>
        <mxCell id="OFxEvMyeNEJS5PdYJFAr-4" value="" style="outlineConnect=0;fontColor=#232F3E;gradientColor=none;fillColor=#232F3E;strokeColor=none;dashed=0;verticalLabelPosition=bottom;verticalAlign=top;align=center;html=1;fontSize=12;fontStyle=0;aspect=fixed;pointerEvents=1;shape=mxgraph.aws4.traditional_server;" parent="1" vertex="1">
          <mxGeometry x="400" y="231" width="45" height="78" as="geometry"/>
        </mxCell>
        <mxCell id="OFxEvMyeNEJS5PdYJFAr-5" value="" style="shape=image;verticalLabelPosition=bottom;labelBackgroundColor=#ffffff;verticalAlign=top;aspect=fixed;imageAspect=0;image=data:image/png,iVBORw0KGgoAAAANSUhEUgAAA88AAAEjCAYAAAAMkjMTAAAAGXRFWHRTb2Z0d2FyZQBBZG9iZSBJbWFnZVJlYWR5ccllPAAAQIxJREFUeNrs3e1127i2gOE9WfN/dCsYpgJrKghTQZQKQlcQpQLLFTipQE4FciqQUoHsCqypQD4V5BrH4AnDkBI/sEGAfJ+1uGaSSBQJgiA2AAIiAAAAAAAAAAAAAAAAAAAAAABFf0R0rOnzNn/eLp63pLCdcihsD8/b/fO247IDAAAAAMbCBMbL523zvP1wvG3svhOSGQAAAAAQm9nzlj1ve4WAuW7b29+ckfwAAAAAgNCD5tXzdvQYNJe3oz0GgmgAAAAAAEEzQTQAAAAAIBZZYEFzVRCdcZkAAAAAAENInrdtwEFzedsKE4sBAAAAADxaSNi9zad6oRdcPgAAAACAtpsIg+bydsNlBAAAAABoMBNvxTRMu8kwbiYTAwAAAAA4DZx9rtnsc21oAmgAAAAAAIEzATQAAAAAgMCZABoAAAAAMKAxvePc5B1oAAAAAABaGcOs2szCDQAAAABQs5hg4JxvrAMNAAAAADgred6OEw6ejzYNAAAAAACoNaX3nHn/GQAAAADQWkbg/L8tIzsAAAAAwLj84WAfZqmmR2HJptzT8/ba/hcAAAAAMAJ/OtjHcsDA+f55OzxvD6W/v5CX94/nAxzTzKbJiuwFAAAAAMgDRd+ThG3kZWj0rOHxZfY7vicPoyceAAAAAPBfK48B6Vr6zWad2H34Ot4V2QMAAAAA4KvXeS9uh1/P7T7pfQYAAAAAqMs8BKA3isd/I8y8DQAAAABQpt176yPw1G4A2JNNAAAAAGC6EhlPj612AJ2QXQAAAABgmpYS51DtOppDuJdkFwAAAACYJq2ln4Yc5qw1DH1DdgEAAACAadLqpZ0PeE5zxfMCAAAAAExMKnrrOA9Nax3olGwDAAAAANOi9b5zEsC5JcJ7zwAAAACAklcdvnOhcBx3z9shgPQ42GNx7YKsBgAAAADTCp4TheP4FlCaaBxLQlYDAAAAgGl5FPfDmmcBnd9M4fweyTYAAAAAMC1jWp6qjsayVQAAAACASL0K4BgOAabLgawBAAAAAAgpeH4IMF0eyBoAAAAAgK7B84wkAwAAAAAQPEMLDQ8AAAAAMJHg+Ykk64y0AwAAAICJBM8aLgJMlwuyBgAAAAAgpOA5CTBdErIGAAAAAKCPR3G/BnJI7wPPFM7vkWwDAAAAAPHq0vN8UDiORUBponEsB7IaAAAAABA89/UuoDTROBaCZwAAAACYWPD8oHAcprc3CSA9EtHpeX4gqwEAAADAtILne6VjuQogPbSO4Z6sBgAAAADT80Npmw94TnPF8wIAAAAATNBGKcjcD3hOe6Vz2pBdAAAAACBuXdd5/q50PKb392aAdLgRvV7v72QzAAAAAIjbHx2/l4ju2sWXz9utpzTInre14v5fS7yzbafy0qhwYa95vp1yKGxmojTzvveOWw0AAADAVGkNc863zFPgrHkO+8iuqQmMl6IzLH9j951w6wAAAACYEu3A02yaQ7hvPBx/FsF1nNnj3HtIj2KjQmZ/GwAAAABGzQQ+R0+Blsv3keeeAsVj4MGhObaVp2t4Ko1WBNEAAAAAxm7lMdAy7yUnPY41sfvwdbwrgmaCaAAAAADIAzHfQZh5dzZrGGjlQ5I34j8YDDEQzAILmqvSLeO2AgAAABCaPxzsY/W8XQ10/GYm54O8zOpclM8OPR/ouK4lrJ5nkxam1z2NJF/u5GXG9QO3KAAAAICxGKL3OeQttF7nRaTX52iPHQAAAABGIyNoDnKG7ZsRpOcNtxcAAACAMdkSOP83DUIwG9n12AqTiQEAAAAYiUSmPXz7KP1mA3cZOO9HmL57AmgAAAAAY7GYcPAcwvu5Yw2cCaABAAAAjM4Y3rON8b3csQfOBNAAAAAARmdK7z9vSfPJpjkAAAAA9EIvqF/09gMAAAAAATSB8wm8Zw4AAAAABNAEzickwgznCbcZAAAAgLEE0Kw5rIO1tXn/GQAAAMDIjOG93JDes80InP+3ZdxeAAAAADT94fn3zDuqa4lvqaGn5+3yebsL5HhM+j0KSzYVr89r+18A4Ulr/v5gNwAAgOD96fn3TPB5bwPoNJI02tnAOaQK3nLAwPnepsVD6e8v5OX94/kAxzSzabLilgYGldiy/U3h/5uWKztbrpjnBA1hAAAABZmEPdnVUcIcDjwbIN02Ni1mDY8vs9/xfb3oiQeGCZhN45XLySH3dp8JyQsAAPAz0FoFFkQf7TGFGoitPKbFumflNbH78HW8q8CuVRrhuYW4/FdKw0iwQbOP+3vboxxiYkIAAODMH4EcRz7s9uOAlWQzTPDL8/ZZwh0y6OtdZzOE8tL+14W5rWTPPVzDkN59Th1Wuq89BNAmQNl3TMPZiev71DMvmbzzr8PzT+y1uSgdsznGc8OGk1Igt+uQNvcV+086BIi7gfK1OZ8rW2b78rbj+f5w9Ps7ewwAAABBBYeZ+F0bei/NhyQPLZO4ZxT3MeN6FtD1SiWunud1jzRscq4baT/XQWK/++goaG76OkHdqItV6XNd0iZtsN8m2xDm9lr4HhGUdjxeep4BAMAkmIrrUnTend1InO/TaTcq+Ag8tRsA9gTPne+3Hz0C1VQpn60d5c+VozSfcvCsfe8SPAMAgKD9GfCxHeRlCPXnQiXIhT8ivVYmuNEc9myGad96OI/bQlCkYW7T6sDt3cpVKa+Zd5/7LM12b/czqwmInxrsPykFzB875tF1ReCdDyX/bv/8lw3Q5mSF2sB5TTIAAADEwVUPQqyWEudQ7TqaQ7iXgVyzVOLoea6awX3b81zTUhC8Kv1Gk97tlfTvgSxPaHVuQsCk8J1Vg2PqmzZ99uszcB56Ise047HT8wwAAAieJxg8ay39NOQwZ61h6BuC51ZWNb8573GuVcHOokVAVLckW5tru6gInJue01yqh4lPLXheSBirIBA8AwCAwb0iCaKhtYTQ5YDndBlZWo2RCVI/1vzbR8e/ZYZpH0pBZZ2lVPcOm2ubNDyv4jBjM0zbzJbcdNZv87nbieeNRBiqDQAAQPAcmVRpv7fibjmqLjQDlJRs00hWClKvS/+WOP69Q8PPfSzl0+L3rjqc1+XAeT1Ga2F9bQAAAILnyGhNYnQdwLldR5ZmY1MOUsvrnH8c4LpUBfRfT/x7lQ+F/zdB8x2XupVUaIACAAD4xZ8kQRQuFPZZHkI7lIM9lkUEaTY2JghNCn/+YgNnE0QvC5+5LgXUXZWHYu9qPndVkU8/l/7e7GtV8/2kFKR/VUzDVYPP/K2w34PoDiu/4vYAAACI15QnDNtKnGs6twniXJ9fCBP8pBL2hGGPNemVSPvZy8vnmhb+zQSy5dnVHxvmheJ+ijNnHzsei4tgWWPyq1VA+TuRMCYJY8IwAAAQFIZtxyFR2GdIw1jvIkmzMUlLaVQcPn8oXZMuQ7eLDT77igC8brK44nDrnfzaO/2l8P+zEw1A5aHhOy53K0y4BwAAUIFh29MMns07oE8Bnd+TPaZ5wGk2NlelYLkcYH4pBFGJDVRvHV3rTzUBbSq/9jB+rci3u8JnrmqOyeckV00C81mHvL1rcA9r+cDtAQAAELcpD9se6zrIRRrrWA8tlTCHbZePK6v5XHEd7n3PczXDrNdnGjWKvdV1w7rL6w4vGhyLy0aZlYx7neeZhDdkm2HbAAAgCPQ8T9NDoMfEcFE/isOwTU/woSY42RUCz7n9zK7hb5je5bx39CDnJ6ebl47hruaYnuw2K5zLXcVnyvtmmarmgb6m8qiXLr3yAAAABM+oxDqrcCmRXxspTP5q2qv2sUXwfC/t3jUuv1e9lOYTlZWD4/tSgP1OdGemHhPNZfHMNTjUlHGpvU4LyjwAABAqJgzDmFEJ/12fJYgWovMuudln1uP7VROa3ZWOm97NZt443p9pxPhHXoalH058xlwvM4nca/vfA5cCAAAQPKNL5ROkXQhBat/gW2ufWUVQf136s3nfmsaUZnnEJXMd7lves7c2iH4vDLcHAAAEzxjYBcc0SeUeWhOg/NFguy18x/Ww2vKSU7cNj+l1RQBddHjePhf+bHqety2OPZFpvoPvMnguX4O2TG+06bW+FBrCAAAAwfMgVqI3/HSKFeQxH9OYVAWph4bfLa+vvHR4XOV9XbcIzMprUc8q9nVfEUCnZ/Zt0mkv0xvq7foe/OJoP7dCDzQAAAhAyBOGJTbIfSNuZ4AtDhE1vRm75+27rYgfAk2Lg+OK7dwGGqH05mjMuHvg9v4tSJ11DGzK6yubQHXl6LoXe8Pb3oPFtajzxoHPpfv7rQ2Y56UA2pzTN/k5uZi5vy4knIa1JpO4vQ08eN5x2wEAAOgxFdsbeVnjdYi1RB/t74fW47RVONcsoPPLFM4vhHVZUwljnWcTWB57pk12Jv+UzzVtsM+V9F/L91HOrw0963gPrRocc5d8kDbY7xDrmKcyrnXWRVjnGQAAOBTCsO28x2hvN9NDlgx0LIn9/fxYMgljkqGDwj7fBZQP30WSZrEqv6d83WEft6U0dTFx2IfC/++kW0/lden+zSo+k/dAt5nF2RzL3cTyicuyjmHWAABgdIYctp2/O/lRwpwF1/Q+mxl6TU+0GR76WYYb5vygFFAlAQSZiehMzPTA7V0bZO467uOT/Doqozj0/1D6jUOD6/7VwTHdya+NbU9nGgBu5efrIHP5+QpDPnw7f4Xj/kRQ3VaTtNkFkEdcjrhhgi8AAABHQfNKfh1GGsN2tMc9RKCfKp3TOoD8sFY6tzSAc3N53VYUHVC2GmF+Zdg2AABwxvewbdPTbN5LvJL41lyd2eN+FLezDTexU9pvJsO+3z0XvXevd9zeAAAAAGILnk2QZN4hvokwaK4Kom/E71I2JsDUGgY5ZO+z1m/fcWsDAAAAiC14Xsk410zNGwRWir+RystwwbXoNTrkM5z7pjmr+XdubWBQB5IAAACgfXD5YwKb68aBRPTeBQ5h6apM+VySQO6BVHjnGfFYybjmHBDhnWcAAOCQVs/zwlY25hNJx7k9376zRueTqe3F/zrMa0+/mYnuUHEzS/KBWxsAAABA6MGzCf42Ev+7zV0C34107yFc2KB5yMnU8qW5tNyI/jvWX7itAQAAAITO91DjULc2AWLeaz3mYei+hvAfA2u0SYVh24jHShi2zbBtAABQy2XPs69hvzHIGgTQM/uZfUAVzXKwa44v6bGfpHCOPobwm17nJ7IfAAAAgFBNZWKwLj24Vcw60ceIzmNjGwSa9OrO7Gc3no8xtF5nEXqeEZeV0PNMzzMAAKj1p4N9mJ7FOUlZaW7T57IQTPXtzR3Cwm7m2PMJuR5Kn7mw5zVUXqDXGQAAAECwwTNDtc/L0yeR8IZnd20QmEv/mcVdMkHzZ7IaAAAAgBCD5xWBc+sAGjo+Cb3OAAAAABR1nTDM9DpekXwIwO55uyUZAAAAAIQWPOfv8QJDM73NlyQDAAAAAG1dhm2bwDmkWY1NAHVv///wvP37vP0tPyflmkt4szDDjUt7zQEAAAAgqOB5JcPPrG0C5W/yMlz3Xpq96zqzx50+b++E2cHHwEwQdkcyAAAAAAiNCTiHWmf4UV7WRnbVgzyz+3sU1qKOcYtlzdVUWOcZ8VgJ6zyzzjMAAKjV5p3nId5z3j1vb5+31/LS0+hqRuV8aaPXdv+7kVzPwwTyrBlt8J5bFwAAAECIwbPppfU51Plgg1ofge2u8FuxBp93tiHgH/n5/vdYA2dznViWCgAAAEBwwbMZ4uxzWaprGwjuPKfFzv7udUTX72CDyff2/5/sn8cYQBM4AwAAAAg6eHb5rvEpJigyPaergdNkZY8j5CDNHNsnqW5kyAPo3Yjy6Y7AGQAAAEDIwbMJmj96OI57GwiG0mMa2vEU5e9qfz4TXL8985lYfCZwBgAAABB68Oyj1/ku0OAoD0BDWQ5pJy894p9apJX57PtIA88ne+yfuE0BAAAAhBw8++h1vgs8uMsDuCED6IM9hq7vMt/ZoHsXUb7MGwpYxxkAAABA8MHzQnR7nU0geBlJOl2K/yHcJnDPJ0/rG0QebPB9KeG/y30pcc98DgAAAGBiwbNmr3M+JDqW4cS+j/fWBs0rpf1eB5b2xYaCW25LAAAAALEEz3PRXdc5xgmg8gBa0070e4ifbFAeQhBdDJpXwqRgAAAAACILnj8o/qYJlmJdh/hedNeBvhd/7yYXg2jfw9LzIfsEzQAAAACi9vi8/VDYHkmfoNMnkZcZ1jcK57ax+04mdB+lDtNvRbEEZSuH+TUN5Jxcnc+W7AEAAP6sCaC0ApzLkaTbpVJlKk/7w0DnZX73s/xcH9pUgM3w/YvCsSUN9pFvD+K3Nx0AAAAAvAXPC6Xf2o0oiMrPJVXY96IQvIZynsBYJHYzjUJmNYG/pbpB6PC8/SsvrxTc243XC4B+Zvbey+/Dv6R6fhVzrz0UnkPcfwCAYIPnN0q/dT2ytLtWCp7fBBQ8A2MIlhf2vkql3/J7+SiKb0KjEtA0WC7ef0mL7+YN+Vf2v4fS/UcwDQDw7o+KvzuK+/WdzUPv9QjT71HcD3E3FYL/I2uOgqksuhrebxprVh4quksP6fJZueJrziOTl4kPtVYNMGWaWX/9i7R7zSIVd41ut9LtFY+6fPTG8bH96zC9u57rD0e/b4K1tx7ujaXC87fM5FvtCSLN/fdO9EayPdnz+CrtGrISe2yu8sROAACTlojORFjLkabXUim9ErLiaILnWCYMMxX2vVJ+Lm6Zcvm1lpcGwB8et3WLe3Ylw0/K9SPCbehz9TFh2NpTXtUsQ1YD3H/bFvkjpjIZABCBhdLDbTbS9JoppdeCrEjw7LGiFnvgPPMUeDQJTM6VdQTPBM9jDJyHCJqrrtF8JGUyACBQ5XWeNYY4jnmij3wyIdfmZE14bADaeshzZob6W4X9mtEfj6Lbo91UZo9lSbZCy8BZO//eis5qF6nN81cyfCO5ORbTCHgj422wBwAEFjxfKPzGt5Gnocb5XZA1QeB8UmKPPbSK8swe05YKPEYcOBfzeRJYmi5tEE0jNABAPXjWqOztRp6GGudHpRsEzvVSWzlOA05fc2yPgR8jCJy7mNuyI+QRFoktIxgFAgBQDZ61hm2PGcO2QeD8uyelwDmTeHp183TOyHIYIHD+pBA4p+Kn0c2VG9F91xsAMPHg2XWF9EnGvxajxjnS84zYA+e3CoHzOtKKcKzHjXgDZxM0f3a8z0zifB0h1uMGAEQQPLt2P5F0vCcrgcD5l8DZ9T3hI+DQrsATQMNX4HxL/v1FSgANAHDhT5IAIHAmcPYWQD+RFQmcCZwHMRcasAAAPWn3PB8mko5UiEHgrBM4r2Rc7wzT80XgHFPgnI4s4OT+AwA4C54Thf3/O5F0fCArgcDZeeBsgo0rLiEInAcJnE2ZseHyAQBQHTwfFPb/90TS8W+yEgicnVfcb7iEIHAeJHCe2WOnpxYAgJrgWUMykXRMyEogcKbiDngMnLWWg8uPnSUTAQAoYcIwgMC5i3sbOGu8739FxR0EzmcDZ42GK7HHveASAgDgP3ieSgWYij4InN1In7el5zQ7PG87eZmjYVfzmcRub2za0iuOMQbOJl/7fl3iyd53D/acnmqOy9x3F7aM4P4DAATh+Lz9cLyN/SE3U0izI1lxFFKHeWLVMC/uFfJjcdsr39OPysdfvMduejQyLGyQ9GPALe147D8i3IY+122LwFk732o2jG08XtO1dO/hzudEOA6YJ1c84gAA24AqPVMMkNpW1EDwPKbAeeUpaF45PI+Zp+MmeA4/eI49cE7FX9CcOLz/lgMF0QTPAACVVuexP2A0Ks4sD0Lw3OY+GkPgPPNQAd4onkOi1Pjos2FyJeNrNPUVPMceOIuH/LtXPId8uDnBMwBAVXm2bY31it+NPA01zo91o9Gm0hjzO865pXJw/ul5e694DgebRtdkycmJ+R3nXKrc4HGrfA5PHu5xAAB+Y94/0mihHet7zzOl9GKm03FIRbeXYww9zvl5aPU6Hwe4nzKh5zkN5B7U7nkeQ4+ziG6vs+8JAOfiZxj3ikccAExPuedZq1U4G2n6aZ3XPVkTDQJO7R7nO9Hvcc7vI40APe+xu/N8bW7lZf1djJt2j7N5Drz28DyYKzZ2mPvgs+fr4mOkDAAA/6PRYvs40rTSmBmYmbbHIxWdXg4fPc7ryO+jEEZwZELP89C0ep61e5x9jPjQPpebga+9dg/0ikccAEzPq4q/2yn8TiLjm3U7FXczhmqnP8bDR4/zrfjrOZ0r3Ufm3eO7ga+VScfPZNnR8dHj7Kvn1JQnGo1M5t77NPB1uhdGgAAAPATP35V+62pkaad1Pt/JlphI4Gx8UNjnTsLpFfokvIZB4Bxm4Cw2cHbdw/0UUNBqgngasAAAqhKJZ5jhUFLFNEoCO8+lrTCaoK3J8NpH+9m1/W464XvJZT4xQyDHNFQ753rI9jGwe0hsYwfDtofhctj2mIZq5zSWpwxtwkutCQlXVBcBAFoV2rG9+zzW9ElswKtRodrYfScTuo80G1nGEDhrBJWhVmg1Ai+CZ3/Bs/Y2ROAsCkHlNtD7LyN4BgBouhEm2fBRwQxhgpWZrVho92qWK4qZjHcJs9iC5/VA6bMU973OoeaphOCZ4DmwwDmVaY0uc93oTfAMAPgfrWGG+TYnXU4+kH1UpGb2t3ysh3kq2PF1vgTP4c2Iu5FpVWZd9z4TPMcfPK8HLP9WMo1e51xG8AwA0KTZExlyD9GpYNNXoHkUvUlpQgiapxJEhx48ZwOnj+s8GHr+cd34RvAcd/C8HjhtXDdeLQK//1w/wwmeAQC/yGScQ9W6PnR9DmsuplHq+JqGFDT7bDQgeA4rcE4cn88mkjzhcugowXO8wfN6ZHnxGMn953L0B8EzAEzQqxP/ZpZ40FwuYx5IBaLpA3eIoebmN/NZXpOegUq+n5AbLGbyc2bvhNtTjVlG5jaA4Nmlb5Gk/R3Zb/JuZfilnGaO78FY8vU3sh8AQNNK9FvgNwEHdDPRmXna59DmhYTd23zqfBeR3z+p0OPsq2yZTTBPpAFfkzSQ9KbH2U/ZFFNZTc8zAEA1ePQReIU4hHuoodpNlrNqWlG5kfiC5pAmtBpb8JwFlDY3jsuPmBA8TzN4Dmmk1WKijVfGluAZANDVqzP/boZtf/FwHHMbFIYyC3dox1OUyEtv+PbE8c3svy9HkEeX9lxm3K69mHs5pKGVLu+t+8iuxY7sOElfR3r/HUT3FS/X7smKAACt4Nn47OnBmPf0rgZOk5XEMZlZao+z/B5zHjinI8qnKQG0k/trO9Jz+zey4z2QHSfJNHomIzyv2PLzv2RFAIBm8GwC52uPx3QlL72+voO/1P7uVWTXMLPHvSoESPMR5tU5AbSTNAxl6KjL6xhbTxKV92nK59AIoQz72+G+vkd2Heh5BgCoBs/GZ88PnMQGSj56UNPCbyURV8pM0H8caeBMAO1OJmG8++wynz5Fdg2eyIaTZfJ9CPM4JFwKAAD0gmdjiKU18sDW9KwuHQZNM7u/RxnfEOcpVD43JEMvQy29hhf0fE1bJuOYjyJWO5IAAOAjeDYVvuuBjjORl9Z607OavxedtgimZ/bzK/v9o91fQhaIUipxz8IdgjH14B+4nIjMjYyn0ZZgFAAwGX+2/LwJPt/JsL1Wc7vl7yY/yc+eHFOJNu8TXhQCg7kwzHeMTM+NedfujqToJH8//h+CZ2AQG3v/kX8BABhp8GxcSli9VnmvMqbHDD++p/LZWT6B2OUIzoOh0IhNPoHYW4n7PXgapwEAk/Gqw3fuR1DZxngqn2uSoZdM4n//kso7YhXKBGJ9zwEAAILnE8xQ2WuSDwFIJYzZo2M2pvcvY5CQBCgw5RcTiHH/AQBGHDwbq+ftliRsxKST6a1niRq94I/ex342niuVO4f7iu3aU3lHVRmWevw9l685/MX9BwCYij97fj8fvp2RlGcDZ8P02JsehquIzyd/x/ih9PcXtlIyxBC+fOmxFdmtVxrG+v7lXOKaOO4vshsq+JxA7D+O77/YyjoAAAZlln/6wfbbtq9Jr8RWlGI5j41tIGlS6ZjZz/o+v2OAlaI0wjzr6x3yTYTH7MrW0Xmnjo9r5fCapIGkdYzPDB/lmMtr/RjZ/efq3FdU/QBgel452o9pLb8lOX9xK/XLAB2et/fy0st3CPwcXttjNf/fpEfyyX72vf2ur3yR9z6P3b1NWy2Zp3R8cLiv2Hq+mGApXk+iOzojnwFf287hvhKJqzf3DdkYABAK89Cnx7l95ccEK0cJq/fDZQV/Ln5GJ4TW+5yKXq/USjktU+W0WTo+3lgq7/OAr9FK6Hk+V77Mle5t372ac8fHu4ionnIUep4BAAHRrtSHvnV9oJrK/00Ax6+5bIqP88tGGjxXDefUHBpvKphJRA0LsVTeXTYaEDz7C56PFQ2KS+WybBFJ2mg/N0JtNCB4BgA4s5CwelJ9vXProrJjApbtQOfgI/DMZJj3zGMPnlc1DS57ifP9y5nE+a52Xy4bPAie/QWIWw/Xs0nA7pLLsiOW955vhOAZABAoX0N1xzjMOW+AeBxZ4OwrgE4mEjzn95lmQ5VmUOoyf4c4YVxVw1jIQ+sJntsHzzE3YLl+zSqGd/kfheAZANDDK8V9m4mNzIRZ1yNPw2t7nveO92uW3nlt96+9dNBn8Tvh2639TS2LCd3DJt99Um7o0JpAbOdwX7MIrnsmGBtTNl9KnBOIPTje38fAr1UqrPEMAIjEGHuhNXqbTwUGjzK+Yc5aeWITUGXNVy+H9vvkqVIw6fIYQx86ehR6nn3T7nnOLSTMuTTOPZfHOuqnyjaCawIAwC9Cm1W66/DQIZZE0jqfIYfazRXPa2rBs0blUHsCsUTifv2gbdkXeoMGwXP34NlHA5bGyArXjbKhThyWShwNGgAA/GZmHzqxBdFHe9xDvFeZSnzvszaltbxZCJV338HzTPm+0nj/0vXog8dAy7yjEDyPPXj20YA1j6D8TQK8BzWuC8EzAEzQqwF+88k+dHy9z+vieK/t8a4GOl6t3uEQ3ke/jizNQs+rb5XzoesGl53j/SUBVmrXEs861OjnveIzYqaQl74p5feQmFEfKVkTADAWpiKQSXjvRO/tcYVQ6dXoHdgElAc0lnsJoQKXyjC9HNrrz7oMThMZ78gDQ/NdWNfnuBJ6nvv2POeNTJr3n+uyW2NUxDKQ66+5GsFKAAAI4EFn3pnyuURTecjnjYTXa6kx5CwL6PwyhfPbBnBeQwXPWg0uWu9fajSchbB0lfYyYgTPYQbPWmWaVuB2I+NswNJeRmzV89gWdh8bm7829s9TWi0CAOBQIi+t1xvFCujR7n8pYc8SqtGYENIw0plSQ8iUg2ftiqPL9y+1Ao39gPlcc4Z8gufwg+eYGrASiecd7Ta2El4DRmLzxbFB2vG6BwAgiErQylY6kgmeewjLU9XRCPSmHDznFbVYJhA7yngC6ET8vIZC8Bx28BxTA9ZWxhNAm3TfeLj/2pbJWaGce7TfTwvl08z+uTj67ij0RAMABq4ETfncQ3zfOadR2Zl68Cyiv/6sq7y0Et0g31cFXnuoNsFzPMGzjwasR0eNQ6noBvm+AkBfDVdty+SskBZZw+8Ul/bMBAAAgufBgudVgOeoETwRPOsHpq7yk/YyW20qraGmM8FzfMGzdmDqcn6HbQTlxLmGQp9LYDY9n2Lg3LYRb04ADQAgeG4fVBA8Ezz3vWbaFWMXPUvas4TngUaicJ2HmOSQ4DmO4NlHw8pNYOXVqZ7yVOH+2w5w/zUpkxMb/FYFzqvCtjwRWM8L++AdaAAAwTPBs1rlcuiKRkjBs/YEVq7ebfQVhG56Bvz5EntDrQxA8BxX8Cyi/x5u5uAY157y7tbB8S4GCprblMl5ei4b5s1tzXMrb1gMbQ1tAADB86jPnZ7n6QbPIvrv47qYnCsVvxXgR1shzc4EfHP5ubTMkBV2gud4g+cYGrC0X584teJFeqL8SOy/r0R3BQ6XZfJMTq/8UMxXswYB8mMgjcIAAILnyQXPTBg2zeBZRH/9WRd560bCCE5D3wie4wqefTRguZhAbMG95aRMztNx2SB4zu1PPLvy4JrZtwFgQK9IgklKOKbJurWbloWDQP/6eTtwqTBC98/bJ+VytG8D1p3d0L+hJL/mbTydyDvF/QIACJ5Rw3UgYR6+IQ39milUCAi+6l12qNC1cSX9ekdM5fE9lwkjdfu8fVbcfyr9JxC7pAzt7Y39767hMzCfNKyu4WJX2i8AgOAZHgPBkIZ+LSJJszF5K/U9HC6spV+DyL2twANj9El0G7BMIJb1+H7egPXEpVKVys93v29sgPyJZAEAgmeEFwi+C+j83kWSZmOi3btrelI20m+Ew63o9tABQ9JuwDLBWN8GLAI5/XI4/+9bD3kCAEDwPAkPCvs0vb1JAOeWiE7P8wPZ5qydhP/+5SfRfUcbGDJwequ4f1cNWIwA6abJO8p5A4W5Rldn9tf1HWoAAMHzZB/Crl0FcG5XkaXZ2JieXc3JgVJx8/7lLfcyRlq2h96ANaYA2uf999AgeC6WwaasXJ0pS4v7BQDgpCkvVeXy/MvbkDN3zhXPKwSpxLE2t+n12Ivusi6Zg+NcS9xL22QS9nJQIR/b0OXmVvk4tfP2jYNjzCK//9aey+TEfm5/Im9uK8rgupFY+b+zzjMADIie53ho9Q6uBzyndWRpNVZm+OilhP3+pdhjvI40ff8Rhp+jXugTiInNv7FOInYp/nvPD/ZZNJfzryYVy+CqyRYX9u9uhXeiAYDgGY18V9rvXNz0SgwRTPlOqzHTnt3axfuXxiqyCrxJ19fCcG00D5609J0BX2ww+Dai/GwC2CEbrq4LaZ+U/m1XSsd8CL/574fC3yfys6H5mlsFANDU1IdtJxL+sNqmMuVzSQK5ZqnEMWy73KiheW22Du+HrYQ9THRVE/wzbDu+58bW0/EulPPkUdwM+515KCv6blWNdUOUyfl9te/wbJrLz+HaS6qBAIBzleOlfQBqPFSXAQVZTcXwXurQgfM+oOsVY/AsHoJSlyMdljYgCKnSvpf6Hj6CZ4Jnn9dBu4w01/kxsPvvUeqHSQ9VJq8LjRdNV5fICmXbWgAAqDCzDwztILFckcgkjkk4Mg/poTmE20dPRRbQ9Yo1eJ55qBBnjo83hMnEjg3Oi+CZ4DmEBqy1Qt45BnD/rc48y4csk5elAH9pj2dWKMdSu99i+UuPMwCgsvI79MO3yYM3hHTykUanes66mHtqEDkGdv1iDZ7za6Z9rVy/857YoOAYcNlB8EzwPMYGrOJz/HGA+6/qneIQy+SkRUNf03MCAHj0RwDBoGlV/RhQ0GMmbPkiL2svhjgpkXlg+1qf+VZeJig59AhmrsRfb/D1AEHmufN3de47u/m0EN2lzA6iM5FPPoLlg/Lxm+vxteU5pA4Dy9se92Zsx9anvAw5r55rwFpEkj5l5v57p3z8B/usvm3xrA6lTM57mc01vrB/Nudg1nC+t/tlVm0AwG8P19DeVWw7BHOoBgff6baR5kPb88BlM8D1Yv1LVFWW87kTXNw3W4lzvgRgqOeVeR6YXlQXPdJ7G/DPSVoAwBCG6HlO7IM0jSSNdvKyhMghoGMylYergX773qbFQ+nvL+y1HapSE1qvM8INppNC+ZP3+lTJe4IONt+z3BTQP5ie2838/99yuiHqu70P895YAAAmxQzhCrm3+VSv5iKgdJxFmo70OgMAAADAGaGvCTn0TNRtZQTNQc6wDQAAAACdmB5B7WU3fG5bCaeXc0zpGsssuAAAAACgEjj7XLPZ59rQIQTQiUx7+PZRmLgJAAAAAIEzAXQDiwkHzwtuMwAAAAAEzgTQTd3I9ALnG24zAAAAALGb0ru4W9Kc95wBAAAAoC16QYdBbz8AAAAARIL3bwmgCZwBAAAA4IREmPk5IYAmcAYAAACAU1hzOJx3cVlbGwAAAAAClBE4/2/LArouY3j/nFm1AQAAAIyC6RGc8nDtquHbIfWSLiK9PkdhHWcAAADASAsbBvKng30sBwwW75+3w/P2UPr7C3l5/3g+UGOCSZNVINf4zqbTOqKbbfe8Xdpri2kp3ze35AOvD+TcwaY9xieTX+fn2NkNAKgXhPl8/ijVHUqXPKvjM0Sv88Y+/GcNjy+z35ly73Ox0hRyL/RRwhr2Dv/KeSIlSbxVTlhLfRrK82GsSBIA1AuCdO71S8rvAbzq+X2fvc6mZeX18/be/v9Tg+882c++t9/11TqT9z6HJk/D64bp58uTPSaf1yg2BJEAAADTkAUaS6BngOijF9MsUeRy+PVc/CzlFGrvc/H6rWTYnuijPQZm0j5fgK4ncq70PA9jJfQ8TwU9zwCoF4SvSf2c8jvCCn3MMy37mIk6i6QRJBO/a0PvpfnQe4g82nRLeEiC4BkEzwAInkdtIdWvrRbrgXMZZm4n9KAdbPkIPLUbAPaRXVNzUy5F5x3xjd13wq3TSjqxSi7BM8EzCJ4BYMr1gvIzOfTRrGgYZI2lx1Y7gI45WExtwLu2Fa7HBuf7aD+7tt8l+HFX0T3ykATBMwieARA8j1q5E2tNNojfUuIcql1Hcwg3L/ujq0TifBXA10NyZh8oplHhkSDgt2D40abNWs63WBM8EzwDsTNDXfNRkSb4YEgrwTPlNIJtERnDMGetYegbsgs6Wkv8rwJoPiS3wuQZTQLhJsEwwTPBMxCzVOKbuBUEz5TTEeq6VNVC6XguB0wLrd9ekM3Qwawm78yFoczFylLZG5KlMg3IMwCm9jyYCb3PABz701EB5cLt83Y/YFrc22PIlAr1HdkNLZxaQ/0D+ak2bYbuZSj32H4aoFw7lTZP3Fr/dVOqVH8V1piP0Vx+f9XrLckySX8F+kwAzxeeLwTPaq141wGkx7VS8Dwn2EFLH078W2bz6mHC6fNk76m09PffBj6uNICK27eKcnpH4PxbmVy8Vt9JkijNhFEV+FnuLWueEwDPFzjTZdj2hcJx3AUSCBzssbh2QVZDCyY4Thp8Zurey8/W3CfboLAiWf6bBteFYPnWphUAjNXOlnOHwp/fCo2GAAIInhOF4/gWUJpoHEtCVkMLH0t/vpPfh/x8JJn+WykycxX88bz9H4HzbwH0/9m0uaQCCWACzLPytS33TOB8T5IAGGvwfBdQmmgcC8Ezmkrl9yG3X+TlnZkiM1wxI7kAAACA6QTPpmUwpF6RJ3HfWknwjKbK7zof5GX42a4iX9L7DAAAAAQcPLt2CDBdDmQNDCCR33uTixPpfSn9G8tWAQAAABMKnh8CTJcHsgYGUO5JNqMgiq8R3MrvozQ+kGwAAABAeMEz6+UBOqreYf5SESyXe5/Nd5IIzi+1W6hlSBL48eXmordcYNvjSAM5llCvk+/0yX8ziTCdQi6XXZQLvvPDUOXtrGMenEXwjJh7Or40wvv41DM1DfjYpvz8mg2U11z+Xtfnh/fns0nsH463VYCZaqVwnjQ84JRlRZ5Jagr9GO6hxfO2ft4ea+6HrT3n8n1R/lx6pgDclrY2Mvud8m8+2jSdtdxP1b72pePLTuynfC7zwnluKva9OZE+dftqWuZtK/LdjT2fHzXnedPhodj3Gt60SN/ibx0rrnlxPzcdKmOn0ufR3g8uK5LzjtdkO2D5MbO/t6853qzldd/XlC1N8n524pqvKsquNuWC7/zQtbxdlbakw702q0mvc2VUYo/5WJM+XcqTNuXBufJnZtOs6hoeHV6/rteubRnvorw5VVbn6bVVyPNt6gV1ea3LsaWl+0P7+dJmH03zeNM0KD4z5o7zx6LiPsrvoaTlvtKa+tC58jk7UR5vxMMEvATP3TbglPKDc33is+uKQigU6YlKwI+aSsiy40My7Xifzc48QIoPkrnj8mLVsoKQndlf5qiyURc8z+zDtE1Zt27R8ND1GnYJBNMW57BtkZfWLdOnb0U3aZh/i9tN4ZoMFTzPG5YNmwb5p835py3y/OxEBSuvoIWUH3yWt1X5Zl4T/Fblvy5l5tFWvDXKg1Plz6LheTXNr3VBs69r5+rZXldWL1ukV5c83/Vcuzy/toWAbtXiueDi+ZKK+xiqSxqU06FP/jhXHiYO95WX0fPSc2evfC8PEjxvAgxkNgTP8GjhIGjMAjiPVc9yYOYpeG5T8T42KEy1gudzD4qtw8rGqqZys+94PY8NK0cxB89Ng8G2DR/nyopjx9/bF1r0fQfPsw6Va9/B875Bfk8Dyg++y9ttxT7aXNN1iwpweZsrlAennqVd7q02le51j2u37nDttILnWc/6ctM83+Vc+z6/FiMIntMez4t8W/bIH+uOx95lX1X1j3mH828Uk/4ZQIU7kfCEeEwYr/JEYWZJqt2Jz5t/O5Ty6ZW8TCg2lPWJB+HBHvO/z9tfUv2eysLTcS4qftsc313h35OKVtvLAdI0q8gXT4Xjv1YOdrYVFcIney3zSRXf2Os5q/n+W3G/9F8I5jXpU5Xf05rKfx5M3LbID3UjUppcl3z4/xBLQ15VpJXJF9+et7/tfTcrVZ4yz2XavCJN7215kMjPJQNDyA8hlLflfdwV8t9Fxb9nNn0WFc+z7/b/q/JCfr7/eHyWVeXT/LzSiuOb2yBj5fDa1d3HmYTzGmDdsPziNb2w55A4KANdlM9Nji9vFLiL+Bl16nlxsPn6oXDf1c2ncmPT6LLjMZTTfWZ/x5SvnzvuK6+z/ceWcVX1tryRaXbi/npXcc4Luzm/9n1aVmN4H1jjve5HAeoL+S6tsZn4b3lucyx562p65nvnWgVPfT+V9r2W5VbyTc0DvdiCea5ClMjPiTeqWm1TaTYxR5Mht3kZdS6P9O15rirDsg7X8vFM+d7lGha16WkqTpBS7pFYl67TuZ6uund20xN5pK6HZt6wnDh2uC6pnO99WXkoI45yujejPFz68UyAlweEy5q8XtxmLfP8o1S/+zgPJD8MVd7W9fbvpX7o5anfq3stpm7ofOq4PKgrf86d16wm7zQZpbTsce0ee1w7F1I539u3OpEGp8qic3m+zbnW5Z9zx3fqnmzS8+zi+dJmH6fqFPOO+SyR+h7eZcf8caz4bnKmfD+V15Y16da1lzuT7q9t9aqsuNgyCUemcH5bAap1fX+5ahjkEK9A1A3HXLb4/t5j8FyugCQnyrmbDg17fSo0p4Y6ivJxnAqem74HVHctbwIJnl18ry6tmr7nvez4fNhKv3fL1wMGz4k0a0ye2X9btth3n/xTFwC1ff/YZ34YsrzddmgcW0q7dx2LeebYohxxHTzvO173RctzanP/nRsiPWTwvG9x36w7pHebc121aAhpGwM0rcu7eDVm2yOfPPYs5+teD5p3yB+Zw7y27HDeTepRVe+EO+/U7fOuRgzvPWu877wW4Hylsm0Bd9OyQqJh5aAyfqpC5zp41p6LwHXwPPN0HCtHDX911zIZSfBcFbzsWx7zjYNKSZcG2fVAwXMqeo3JroPnmw753Wd+GLK83XasGB87pvPaQSNT1+A5aZiOba6Fi/xWdx2GDJ6b9Lg3KYsyB8+zqvuxy/FlEQfPqx6Na0XzluefdmyEarqvJiN4lx3rUUnb++lVh5N6ULgpFxLGe8aJ6Lx7+SBAdQFddtvi+18q/u6j53P4UPrzrsODwrz78n6ga5AGnD/uZJj3U/tcF/Ody4Z5PUZV72O2fRfsuuK6fmhxj3W9X8xxHgJIw7mEu3Tj18DzQ2jlbZP3Au87pvNDRf3Mh9uG90k+z0DRxYnPV81t8qnjfRyS9x2eU58q0viDUvnc5fhuZdg5ZPr4WHGPfu6wn6r8mUq7kTlfHZ5X17KmST3qUPGZxHXwrDX5y1UAmU7rGMY4YQ76mVUUck0f2sUb/q4iSPFVMa2aBORLx30dPD2sypWdTcAB9NCNbl86Bu/3Fdfyw0ju23cV+alt+f5UkT7pmQphuZzo2qhyPUCa7SrKvrbLoPhyH3B+CK283TXMh987pvP9QMHz9x6fPfW+78zRvejrWdk0D+w6fO+p4vxTB9f4XUUe2nXc17XEp6rx4FOP/X3u2cjhMvb51uFZ06Ye1aq8edXxZtGQif4i7+cCgcxT5QGoKuT+leoJIU5tDxUPb18zV6cVD8Q+MxR+8XDMX2sq8luP6TbEg6frg9PVgy6RcaxikHZ4oDfJh/MTz6XZme+20Sfwlp6/Wz4vMwxvPfBzv+/95jM/hFbedi2fQq8PHZTqly6v3ddA0qpPHrprkMf73o9fe+aD2GbbflNxj/bNz3c9rpHLOkxQ5c0rh5nehSHfDdb67Zinuoeeq5q/27bcrhruW8PfjgtKH8HibU1hah4IG/k5YVEIw0qHHLK96/n7VeXeGILncr6oel+16bqwTSqOicJ9MkSjzKea/JTZtNjK8EP7nwLPD6GVt/8Z6bNZo7Lt+tqF0gBx1/N+2zl8Rsykejm8PmJ75bLcSPPNwT6/nfkNX3WYp5ASumvw/F3xwt8MkA43otf6/V2A3ytFmoFEIn6GIs8V8rqPSsF7qR/2ltjy4NwSQGN3r7CP+Qju26ErQy7ujyGeSabi88+JfGXSdi2nl3eaen6ItbyFzrUbemSSxjPiwmEau8jfu8jzmYvj3zVM60kJrefZWHqutGbSbSa6ENIKcfLRM/yRZD5ZkTeTrryV+iFN+bqBWwl3ciNN/3GUzuU0xXQdbABd1wudV8ryZeIANC9fY/z9//CMcGo2st8J1p89HoL3otf6kA+hvvUQOGsOFXfxvgHGJRE/PRb5DPbkv3q75+21TauPNdcltZX5txLYsCEEweWkMlO5Vz/bZ7u5766kehRO/urEJfkBADCG4Nn4ohx4mn2bIRyflPZ/I7o9znkaAUVVvc6vHVSUTENW+b25j4r3j1QEk385alzw7c5uc5tmWUXamvLo/YTy6d8O9jE7k19iU3X8K8+/OQvk2ro4r9tCEF3VeGXuwwfpN3HdmPLDWMrbKRrjtXPx+385fEY81TyDniZ0fzyVnhEunhezhmk9Ka96fNfHGqRLGxC47OHOg4ylh0zMkG2UC6Gs4j46ONh31ZIMmegOrylPppE6eBgP+bAyaZgP5y6XbaGsRe/L3EFen1ekb8yqjj/1/Jsu1khOA0vXO3vPVTX0fSQ/jLa8nZIHhfI1hODZdVn0ENj9+CbyZ5SL2CltmNYEzy2CQx89q3mwu+5ZWCTyc0ISHy+7d10jFeO1rMknrlQtw6S5/JLrin0olfqdrcyHHnRol7uJ42s5hgfuwWHlZNbhHuubD0MOmD5XBNChB3g+88NYy9spOFSkfZ9rF8qyioue+d11A+u94+A3tnukfP7vHOzzTUX9aPJe9fz+Z48BYiYvM+BupHmPWt7Tly9Bk3k61icJd6gZhvOh4oHqsiC6rbgfNScnu6+5T7sKqZfpvuL8konlV5fX8r7mWfFUE+C1CQbP7c+lncM8a55L5xqFnyoq3h9Gco/VlWES0X3nMz+Mubwdu53jwPNDIOfV5ziWDdOpT52kz/0R42izqvXi+zQAVI2W/Mbt3D949tX7XM7Q5gFzlJdeZPPAWZW2jf23o/2s71Y6ep1RVckpF8TXSnmvXPFMlc6pKvi/km4t6gvxMyIkbVEmTP0e/tix8pBW5LlvLQKCpvmgauiidu/2t4r7K+tYHqTyc53j1Yn75mvFvdLlnu56rK7KvyYz18d2z/nMDzGWt/h57cpl002Pa5cGcl5px/r1TH5vvNk5uP+rRt+tOu7rKsJ8VjVJcZ+VC6ryKK+jOjKzQeoPtv9uR2Ead/xuX5FPNCQVeXKjXCnu+3vzE2VIeubBXf78qc8Wr8G2wXGVj6lJJaHN8bv8bt99rWrSf9+yPDOffWxZJpbvjW3D36o65qbHui19r00Fq+r8kp75/bHlPf3Y4brsa67xSrF8WJbSa9Ugbdpc0zZlwLn8s+14jj7zw5Dlbdd7pms6d7m2bY+xT/5pe25DXjtXgXJdnbdtQ8ym5fG3+exjxefbHt+65lyb5t2tgzK26z6q8lmXyZ3b7qfvveRqX13vi1bp/crBDWVaij4Jcp+EHiv8XhCUC2+tERsH+X3oo+bwI/Nb9xW/t25Yuc/XdfXR4DQvXZPlmUp/+ZimOElGfn2SHp89NxLnW8X9kjX4LY2eiyauawLTecOyoCq/X565pz9XBNRNr8vMfnaInsby6ICrM8dxVXHuoT9PfeaHmMpb/H7tDhXXbhv5tcvLl7ThZzfye0P0Tty9wvapJjBqGkStZbgROq7y2a4iEG6Td24qAmViPSVbodd5SzZAhapW1kTx99KK37tR/L261vB8noFZzXfWDe6ptOV5ti2jqoYlLXvc22PreS72Lqxq8m1i07EqDzTpua4bvXRT8Xsze32OPdOrb8/Apiad6t5ZPZXfm/x2Xc/xueuykvMjw1aKZUPVtT1WNFzNatJn1aGsa2rl8PntMz8MVd7S89z/3NIO5auLa6dVr6jK7/OacqA8CqVNz3Xbc113OL6s5vhi63nOy/5jy3x2Lg0WyveSq3156Xl2KZFpD99uO1QL05CImyE0bbUdOtvX4sz98WgLp1ONbJly8HxqyNv+zLE1LYDHEjxvT1RAjoVreRQ3r7BkDfLO/kylzVfF5FQwW5VGPxwdd9Igvc9dl/UAlYTsTGV03yP/hBI8+84PQ5S3BM9uzi1rUJd0fe20gudz9/a2QUDa5Li7fGffIBA+dXx724AbY/B8rr7T9hplygHvpIPnJgX6mLdQlg5AWNYDPOTqHtCZ8m82KazPFc6awXOeLseOxza14FkqKg9Nt7bvSjepVLoKnF09KPMhiF2fGUuFIK1JOg1RSWibj5q+RxlK8DxEfvBd3hI8uzu3zPO10wqe+5xLm3elu57rWvo9v7pe3xCC57xM6jMq+LHFNZpU8PzK8c1lZmGb4hJNn4UZ6FBdcJUbVcz7ajsPv23yo89lq/Jzey3tlrDb2e/cerom5nfeNrwGh+ftvcdjC9Enm16Hhp831928A/qPtH9X9dZ+r+n9kV+fy4HS5sn+/vsW6ZPfm687PiufbBp9avGbB3sNLwfOR03TaWePN7Y5BnznhxjKW5wu69pch1CvXdtyO//Oaw/3+GXLsiR/r7fL8yvUMikv+w8tv5c/x++5XX/3h9J+27ycH7v8QQ9UBc/ziorswdPvz6V60qsnT+duGg7eyK/LZeW//91WGssFc9rieKvSt80D3PzWh9Lx7ez1+d6xkpL2SO/U4bVqu69Efn3t5Knm2ryzaV78fN80q8u7xfyTFI7pvpB/XN0bLu7LqmPO0/5QOGaX93/+e/PCOeXnUpdOGufeRmbzUWKPpXhdv7W8h/uUAU3yfCz5wUd52zXfdE3nLte27TH2fYa4yEP5u6YXLa9duTfureg2zKfye8/rHxXpkdl8WEzb+9Iz4qnDb/d9Np56phTvxycH19dFGav9jCpen3PPDO2y2OW+uuaVoZ+L/zvxrkPLYtq6DE0EAAAAugpl2DYwOX8q7TcfKjDU8hg+3NtzZFkqAAAAVCn3pPUd5UCnDTDyAmOMPdD0OAMAAOCctKIO6XJ/PwY4B3qeMVmvlPef90DvRpRmO6HHGQAAAOcdSn+umo+kjXlFXRvACHVd8iSk7YbLCAAAgBbKyzllPfZVXlZn4+H4U6HnGRjEQrqvbTfkdhTWcQYAAEB75TXAHx0GsZmH4yd4BgaUSL9Fu31vW/l1qnoAAACgqUVF/XLVch8zG3SXO3d8zMFD8AwEIJOwe6GP4qc1DwAAAONWNYHuskXgvHcQgBM8A5Gb2Rs/pCD6aI+J2bQBAADgwlzqRzguTtSTs5p68t7jsRM8AwTRBM0AAADwJpPzrwrm26OcXjI1IXgGkLew+Vwbem9/k6AZAAAAmvpOnrsdoM5K8AxEIJGXd0E2CgHzxu47IZkBAADgkQl+1y3rrqYnOhvoeAmeAeuPiI7V3LjmfZELG/QmDYLfQ2F7eN7un7cdlx0AAAABBNGmJ/qNrdOmhX97svVWs321/x2yDr6NOIYAAAAAAAAAAAAAAAAAAAAAAABx+H8BBgCGtNNPnVmJrQAAAABJRU5ErkJggg==;" parent="1" vertex="1">
          <mxGeometry x="660" y="235.5" width="232" height="69" as="geometry"/>
        </mxCell>
        <mxCell id="VL3Qhbk6M924IcoiZEVy-1" value="&lt;font style=&quot;font-size: 16px&quot; color=&quot;#004c99&quot;&gt;业务数据库&lt;/font&gt;" style="text;html=1;strokeColor=none;fillColor=none;align=center;verticalAlign=middle;whiteSpace=wrap;rounded=0;" parent="1" vertex="1">
          <mxGeometry x="95" y="304.5" width="90" height="34" as="geometry"/>
        </mxCell>
        <mxCell id="VL3Qhbk6M924IcoiZEVy-2" value="&lt;font style=&quot;font-size: 16px&quot; color=&quot;#004c99&quot;&gt;Canal服务&lt;/font&gt;" style="text;html=1;strokeColor=none;fillColor=none;align=center;verticalAlign=middle;whiteSpace=wrap;rounded=0;" parent="1" vertex="1">
          <mxGeometry x="380" y="316.5" width="85" height="19" as="geometry"/>
        </mxCell>
        <mxCell id="VL3Qhbk6M924IcoiZEVy-3" value="" style="shape=image;verticalLabelPosition=bottom;labelBackgroundColor=#ffffff;verticalAlign=top;aspect=fixed;imageAspect=0;image=data:image/png,iVBORw0KGgoAAAANSUhEUgAAAxwAAADYCAYAAABhluU3AAAAGXRFWHRTb2Z0d2FyZQBBZG9iZSBJbWFnZVJlYWR5ccllPAAAAyRpVFh0WE1MOmNvbS5hZG9iZS54bXAAAAAAADw/eHBhY2tldCBiZWdpbj0i77u/IiBpZD0iVzVNME1wQ2VoaUh6cmVTek5UY3prYzlkIj8+IDx4OnhtcG1ldGEgeG1sbnM6eD0iYWRvYmU6bnM6bWV0YS8iIHg6eG1wdGs9IkFkb2JlIFhNUCBDb3JlIDUuMy1jMDExIDY2LjE0NTY2MSwgMjAxMi8wMi8wNi0xNDo1NjoyNyAgICAgICAgIj4gPHJkZjpSREYgeG1sbnM6cmRmPSJodHRwOi8vd3d3LnczLm9yZy8xOTk5LzAyLzIyLXJkZi1zeW50YXgtbnMjIj4gPHJkZjpEZXNjcmlwdGlvbiByZGY6YWJvdXQ9IiIgeG1sbnM6eG1wPSJodHRwOi8vbnMuYWRvYmUuY29tL3hhcC8xLjAvIiB4bWxuczp4bXBNTT0iaHR0cDovL25zLmFkb2JlLmNvbS94YXAvMS4wL21tLyIgeG1sbnM6c3RSZWY9Imh0dHA6Ly9ucy5hZG9iZS5jb20veGFwLzEuMC9zVHlwZS9SZXNvdXJjZVJlZiMiIHhtcDpDcmVhdG9yVG9vbD0iQWRvYmUgUGhvdG9zaG9wIENTNiAoTWFjaW50b3NoKSIgeG1wTU06SW5zdGFuY2VJRD0ieG1wLmlpZDo1NzM3QkMwM0YzQTMxMUU5QTA4NUE2QTAwQzRBM0E2MCIgeG1wTU06RG9jdW1lbnRJRD0ieG1wLmRpZDo1NzM3QkMwNEYzQTMxMUU5QTA4NUE2QTAwQzRBM0E2MCI+IDx4bXBNTTpEZXJpdmVkRnJvbSBzdFJlZjppbnN0YW5jZUlEPSJ4bXAuaWlkOjU3MzdCQzAxRjNBMzExRTlBMDg1QTZBMDBDNEEzQTYwIiBzdFJlZjpkb2N1bWVudElEPSJ4bXAuZGlkOjU3MzdCQzAyRjNBMzExRTlBMDg1QTZBMDBDNEEzQTYwIi8+IDwvcmRmOkRlc2NyaXB0aW9uPiA8L3JkZjpSREY+IDwveDp4bXBtZXRhPiA8P3hwYWNrZXQgZW5kPSJyIj8+7SkWvAAAqj5JREFUeNrsnQlAFOX7x9+Z2QOWSwRBPHARUUIIRdL4YYQReWWWf8r8ZZZZZnbYnd1l/dKyzDzKTs0sj8wjz7wlEQ9EEUQUUUQO5ZRr2Wtm/u8zy+BqKrscBvJ8bGJZZud49t3Z5zvvczCiKBIEQZCWiPFcmpvIm5SsWlOp9OllQIsgCIIgSOtDgSZAEKQlUZO6NUR3eMMYY+6xvkJlsafIG8MZlVOi0tM3W92jf7xT+P0LFR17ovhAEARBkFYCgzMcCIK0FEoWPT+zOnn9Ay6c0R+uTKLI1P2NZRhiFkRidPE54BI9YZbr3ZOWo8UQBEEQBAUHgiBIvRizD3uW/PraL5qSEwF6M/E3UGHBsAoi0n8MFRrSdYr+xwhmolEyhBdINhcet9Rj3Oy30HoIgiAIgoIDQRDk2mIj95hzyY+T1jlXnI0uMwiEsBwhPE8khfGPKxYjCRFWNBNnJZNlDhmx1mP816+gFREEQRCk5cKiCRAE+Te5+Pu7PzhVnIm+aKq9HPHmq4sNQBSJyJuIwChIhUHw51LXjSxb8c4baEUEQRAEQcGBIAjyT7Gx8oNXlTn7B1zUg5YQJEFhCyA6RFZBqk2iv2HPz5Mqdy8agdZEEARBEBQcCIIgddQc2xFUlbBkgpFntYTjCBF4+zYgmAnPcETBiNryDZ9/BHkgaFUEQRAEQcGBIAgiUbV74cuujD7QAJchKYyqAdDX1YgccTGXh5ZvnDUDrYogCIIgKDgQBEGILnl9eE36zphqk0iI0LjCFaLAk3KDQMQTO2MwtApBEARBUHAgCIIQ3eF1Y9upidbMKCAho3Ebg7wPqFzFEG3l9gWYQI4gCIIgKDgQBGnLGHOOuusz991hMNucI14/Ak9qeJZoKvM6li6d+g5aGUEQBEFQcCAI0kYxnE6KUteUhNWYRfsTxa+JRbnozKJ/VeLSx/XpOwPR0giCIAiCggNBkDaIMTt5oJojUhjUNfttNERyiAIx00uaM2f2L/9r7gdoaQRBEARBwYEgSFsUHPnHgwWRIYRp4g1DfBYVHVVGuunsAwMqti0YjdZGEARBEBQcCIK0IQxZBzqbS/J99TxpwgQOa80BCeQwfUK0lTu/f9lUcFKNVkcQBEEQFBwIgrQRzCU5/kpTVZCJF6TZiKZGmjQRBKI3E+KoO9+/Yuv8D9HqCIIgCIKCA0GQtiI4Cs8EqjiBiAzTjHuBWQ6WQBWs6oNr4nRHNoWh5REEQRAEBQeCIG1BcBSd6aVgGcJAwngzhFRd0hwCMRGOOHO8f8WWee+h5REEQRAEBQeCIG0AU2merygyRCRi8+6IihmYQ9GZBcLmpYSWb5o9Hq2PIAiCICg4EAS5iTGfz1QKF893NvFUDNijNyD8Sl7s0RwCTwRGCRc5bVX8z5ON59Lc8F1AEARBEBQcCILcrIKjvLAzX34+wgj54qKNDf+oyGCIQBSgNURit+ggdD86uiuNvjC8ctvXGFqFIAiCICg4EAS5WeFLcgJUVDzwgmhzvz8G8jwUjkRQORMFC1Wo7LxkwesZjhh4llQnbxipS17XH98JBEEQBEHBgSDITYipMCtIJXUY5+pt+ifpEYYhGiVDlB0D1rk/9PGdootXkgMnSALCLgQzMYoscVEI/hXbv32jtdnNePaIZ03qlpDqg6siqw+ujtQf2xFkyjuuwRGFIAiCtBYUaAIEQW4E5sLsnioWZhxYKgKuP8XB1CoSjooOwc2r0GlAXDxflj9X+Gvme3qe+FtSwm1PBIE09SoTT1TnUsLKN301zm3olMUt1U76E3v8jdnJkcac1HBjfkaIUH6ho2gyBIJwkqLKOCVh1JpUZQe/0+peA7dowu9fpOp8iw5HGIIgCIKCA0GQti04Ss9pWVvDqSQ9IRIzRFS175IFT7kOeWHx+SMbRjtfSPev5DlCeLPN+4YEckIddQXLa6v2LH7WMThmraprcHlLsIvhzCEv49mUCGP24YHGc6l9TUVntBqW91dQsSVSe5kFqOlFhRdjkVmsaCasoTJEkZ8SQgqOjizau2yC69AX/ucSPWEVjjIEQRAEBQeCIG0SY+4xZ3NpbleGhyhOGxQHwxKWmKmzzRKHjgHp8tOudz/zccnCZ4MVrOhrhtAsgbf9IHieVIsscdUV9q/c+f2bHuO+mvqv2OJcmpspL72vMTt5oDSLUXCyl4NQE6jiLAID0k50oKWkhHn6XF1HdksErDQ5RFeCMDFAI5aE1ax+/wvRUO3sOviFxTjaEARBEBQcCIK0OfiyPD9RVxZipk6zrT04IJzKxCozFV5+J+TnNOH3J9Yc3bpSmbb25Ysme7uVSwFJRM+LxJS0Js4x5J6Vmr7Dk5r73KEcsLHgRKgx+3CkMedouCk/I0RRczHUgV59VSKkmAikhmqKGhBjUIULBIZkIoGKC/E66S6W9WoYBVETs/bihi/eU2nDEhx6DczCEYcgCIKg4EAQpE1hvpAV5MCxRGcW6/Iz6hUcLENEZ48yh1uiM6yfd77ryelFJ/dEa/iSMHC2Rb42t8GWjUICOacgbgrBv3LH929QwfFgc5xvTdr2IGNOSoTx7JEIY15GkHgxN8JZxVFhAOpLJAZYRM5y1HUd1wVphoOx0kfXPafa18H5G6Rz4v2r9614igqOqTjiEARBEBQcCIK0KYwXTgdByJB0F58I14+qqr3LT1cngqtXwZV/Vmv7FrvcMe5r89Yv3xHNZq0UeiTa0UlQ4Em5QSSOOUnh5VvmjXW757kljT0//YkErTE3LRwEhik3PdRUlK11Vpj91fTYWJi9oOtUmizNC0XpWIXamQyr4xZtFE1X6g54Id2WEWZuzqaE42hDEARBUHAgCNLm4EtytBw41JLDff11odeGnLeg9OqeebV13Ia/8uP5tO0jXC+kaivMrM0J5NJMCBwApyAsw2urdi98XtM7ZpXSzipPhuzDnsZzaf1NOUcHUKHR11x4xl9trgpSc3TTIiMJimoT/YW1Ol84J+FygdEUMLXbFuh+xepSTxxtCIIgCAoOBEHaHObiHH9GqrYkkvoUhwh3/2uDpBQdtBnXWs/lridnlvz8QqiSMWvNrIL63PWLjroZBIEnOpEjrjWF/St2/vCmx9gv3r3e60z5J9RUWAwwnjva33TuWJjxfGYvtrokzEnJEAf6d5hdqDHTRVDU7sQiOiB86kbAMJZkfJFheRxtCIIgCAoOBEHaFIasgz58xQUvRrCE/tjiPLPUWdeZROLRQZt5rfWcbhuVUJO6dZUibf3LFSaxNhTLRgdfBOdcJNX0dfz+lWM0IXevdgwdmmy9iu7oX6FSiNS5tHBTwckgc1lehLNSJGo4Pnouenou5SYFYVhWyr2g6kLKEbnhwKwRgSR7KtVcPQtxxCEIgiAoOBAEaVOYi7N7sbwxwCzanNptSRhXOadzHfwyrreea8zT04tOJkZrhOKwGoGTEqhtRuCJmeGIhuP9y9bO+Mx88fxcYjYq9aeTosznqcAoOefrIBoDlBxDOCooDAw0D6THz7KXbUMU/uVJhVqzKqjNmE5BaTjiEARBEBQcCIK0KUwXTgdqFCKpNLE25y1Id+ud2her/cKue8de1a1PsfPAR741bv3qTcKbtQzL2ScARJ7U8BxRFp+Oqfj93RiW7tdRwdILo0CMAkv/BmFSXF0jQmmGhje3LAMzFuGj59lsl1uiNuCIQxAEQVoaLJoAQZDmhC85GyDlGEhL/d4zJIyzcMfe0zfblu273fvad3ynkFRnFSFiA+o8iZK4EKWILEi8rjTThVcQg1jbFwPCpEBkiDxpskzvJhUcHIFcEtE7INNpwIO7cMQhCIIgKDgQBGlTmIrO+psF26SAJExEKO4kEkUHv0xb9+Fy18RPq8xctpKYqa6xc+JWtCSyQ1NCnqmtkAUCA4SGKLZs49YKImrebOfIsfNxtCEIgiAoOBAEaVOYC0+z5tLcrrzAXHLur+f711aoMtH1ldepUHUlTrc9kODYZ+hatQJ2ATMRDehoAaFYsLR0kWGtN1iOuKmpSPL/zx6X6CfW4ohDEARBUHAgCNKmMBXn9BR0F8N4qAplQ4UqABLGDQIHMxwn7NmXa+zkD2vUnsmO0MCb5VqoQrA0/2sSOAVxYHhSybmkug1/7XUcbQiCIAgKDgRB2hzmojO9VEQgvGDbrAGEVCmgc7ijS4rSS3vSnn2pfEPLnAeO/ZY+zGYEs3T3vwUoDEn8SGFeDCfNnrBEaPxm6fYUIk+MPMlud/9br6v9byvA0YYgCIKg4EAQpO0JjuLsAOi+LdpyV5+xJIxDhSqunU+BomNPg737kxLIfXqna5SW3hRNNptgs76oncEAgcFamgBy9JxUjECclbwluVvqRN6Q5Hb5qk0FDBVU1K7ZmpinZztHjt2MIw1BEARBwYEgSNsUHIXZAaKcE1HfJIdomeGAkCqll+0J41fiGjv542ozyYbStlJlrBshMqi4YDiFtD+G7ldNBYYTxxNoFAjnY2RVmQaPXluZAY+8r+r5nyUqjrErvKqug4nU3FAgLmo2S7x1xCr3B979CkcZgiAI0tLBPhwIgjSf4Cg+60/q9Mb1K1UxcoUoupbCs1uDBYem38hEpyOb1jJp66ZUmYRaV70JE8EloVBbMhc2K5iJihWIkhUJS58zCSwxEC6Lb9clT9mpV5qmW59EVZfeyQ6970qHl1/4bPgaBV0X+nxYSu3asEv5/wxHXJUCMXS9Lcn7iW9ewRGGIAiCoOBAEKTNYso95sxXFnmxosXhr+9ePlSoYkSR1JgJcfXyy2jMvl0HP/f+hZMJ0Wr+YqgB9t/YbuCQVwJNBeEx3RbMnqhYS3dvqMBVbRYJ79opUeXTM0PVNeSAi1/fBMeQe1Kv3EzR/LE/OZw/Glwu9Q60L5eD4TjizJlJjVv3XZ4PT38MRxiCIAiCggNBkDaNuQQqVJWH8Iw8e1G/0w/hRzyryFJ6dT/RmH0ruwSXO0c9Pte89ct3iEnQWmYj7JnlsAgMqQMhJLyLJuJAHyrp7yInkmqTSPQOHZKV3v6Zyi69D3tq++6hP5OUPr2umXdSsnjKDFXW7qhyg+Bv9/FwCuLI8kSndE/xGP3Jk9fbD4IgCIKg4EAQpE1gLMgM1tArjM4EyRn1382XKlSxdD2XDiXqHrfnNHb/7Ya/8uP51K0jnc6naavNrOUYruXkwwwGiCL4SSBNgidKur6atVTY1Zs5YlA6pfMd/LKUnYNS3LqFJsJMhlrbt9iWYylfP3OicOiP0RU8FT+QTG7HjAvkhiiJQGp4Lqv9/33wgkPgHVk4uhAEQRAUHAiCtGn0JxK0ukNrxrLQ8M+2FuNSuBLkNogevk3mULve89y04h+fDuUYwZe/yj6lUrVwfFQAcNSpd+BEwlHhYabaREeUmWJ73xxl51tSHH1vPdDO99b96p6R2fYeQ1XCr0MqNs1+W8ESX5FRSjkfdUng9ZmFihMWZoYYJttt+CvTnAbExePoQhAEQVBwIAjSJjGc2udryDoYpc86EG08c6g/ZygPMdjYYdyyDpGcfeLpm91Ux6QJuzdJc+T+lYrUP1+u5FkiQngUyxCmNtnbgeMJVIyCDJMKg0D0Ll0TlJ16HVN1vfWAZ9eQA463/jMPwy7hdWxHUNkf075QKxhfg0gvt7zJIiRseTHkjMAxKplsZsAjP7oOeWExjjIEQRAEBQeCIG2KmvSdgYZTIDCSIo256aEqY3mIGkq+8iLR83ZUh7JkYxMoKqXq0LiE8StxjX1mWlHG7hgnUhZaQwWQs8Li7teYWWJ0bJ8s+vRMV3UNOezpe2uisvMtyU2VHwFJ8yXL3vxBI1QH6UQqHmrFhk3Ulr91VbFZpp6DdnUYM+NjHG0IgiAICg4EQdoEuiMbw4yZ++7Snzk00HQ+s5cDrwuEWQIGRIZZJAZwrqWYId72arTQyoIKDr2ZEI1X9/SmPF5V1+Byl9jJnxrWf/KJoHTU13TseYI+l+zsG5qo6hJ0WNWtT3Fz2Knkt9eXaKryIyp5zubyt7IxGIajwojaw7t3esdnFj+Jow5BEARBwYEgyE1N9YE/ogyZiTGG7CP9zRdOBWhYs78DwxBWgDK2VGhQkQGIIDJ4c8MuRixHzEpNOufRtcmTol1jJy+t8emV4qJUGxx6DWz2pOuiBeO/URccDa40QbCWSER7KlJRO2g4nug03gc8x3yK5W8RBEEQFBwIgtx8mApOqA1ZB2L0J/fGGM+mhJuLc3ydlESrZkTC0n9QFlbqrA0wZiI2UGTUwbBEyQpEbNcpT90ttKw5zskxOCb9RtiubPlbb7IZW4dQsaGVenfY0wOEVUhdynWMY4bnwzOebC5bIAiCIAgKDgRBbjjG3GPOhszEe/Qn9gw2nUvtI5Zf6O+oFIlahJ4UIqk2Q1UnWWSI9uUk1K84qOAghPfoktOabVixZd5YQ8IvE3mRaKEClj1iAypScYQnJkHIaRf37iuOIbGpOCoRBEEQFBwIgrRukXH2iKf+5N5Y/YmEWOO5o2GcrjRUDVcFgSEmqi+qjIylEYUkCUSpalKTw1iSyyH4SNFBm9labak7uCqyfP3nH6gI0UKRXSLaYSuwMbWtUsFkq2KmfOoSNW4jjk4EQRAEBQeCIK0Sw+mDPlRgDNGf2BNryk0PVhorQ5SsKCV4m0SGVJtYS18MKe9AkBxhQmzP/7ab2gpVNWaGOHcMaJV39Q2Zib6lK9+f78ia/WsEaOxnZ0UqQSDOKpIt9Pm/5W73vbEARymCIAiCggNBkNblEJ/cq6058fcQyMkAkeEg1AQqpMqrDDEJPDEIrJRHYWmCJ9jWN6PRwOwJS3fLEpY3E4HuU+HR9XRrs63pwill6bKpPzkZS0MreYV9MxtgA2p3V5WYZdT+J9Hrsa+m4mhFEARBUHAgCNIq0KfvDKw5sWew4WTiIFN+erCGMfsrCVRoFUmNQGo7bYPCYC2zDHaVbm2gxJA6ezO1kxo8vQAJhKNCw9WRIaVKzyRF+y5Zrc3OpUun/uxYejqmwswRRrS9IhWsxXIK4szxpKZ9j9M+L6x4FEctgiAIgoIDQZAWjeF0kk/N0S1xNcd3DTHlZwS5KHitUmSkSYtq0drpF26YyLAIm9qyuXR/SrpjqW+HQiQ6E3XQXX0OVHYOSnWPeHiBomOAqTXZu3jhs1+oziZGVECuC2Nf+VsQGxrWTHRqj2TPMZ+Ox9GLIAiCoOBAEKTFUpO2Pag6cfkk/fFdsc5iTaCKOr4C9X0rTZaQHehaLWNXmdZGiAxGSjZnpGpWalYgSg5EDkOqTEy26OGbo/Ltm9Su5+3b1f4Dtit9ehpam80vrvl4inhk7agqXpQqUtkj3qCksIoIRCcosjwe+vgZtX//PBzFCIIgCAoOBEFaHIbTh7wqdnz7Ts2RjSPcVIzWbCakApQGiAwi1CVk35CcjDqRQaS+HGqGJ0qWIQJddAKXJXgEnFZp++73CIjY6jQgLr41271i5w+jqrcteJFlRK3IKOsS66+H1HwdHkD5WypOBCJmt3vg3amasBEHcCQjCIIgKDgQBGlxVG7/Nq5881fvuQoVITCRUW5iiSU7QpRmMRhrT/cGiQwHEBkcQ8xUZNQwjhlCx4ATqu79Ej163L5d03d40s1gd92RDeHla6fPUHNEqxcVNnVWvyQ2OMJQcaJSMtncHU/Od7lr4kocyQiCIMjNDiPekGo0CII0JaXL3nyHT/xlAn2orRFrk5VvRKjUFSIDnG1HJSPNZBh5kRiUrqmqzrekqbqH73HoMWCXQ++70m8muxvPHPIq+v7JDY66ovAqgbNJbFjbDXBVMlnm4OHrPScseBFHMoIgCNIWwBkOBGllXFz5wavcgSWP1/BEK3Bwh91Emv22Qa3IgPsTrGgijiyROoPXEJYYHNoni11DUqjI+Nu1x4Dt6oCInJvV9qVLX//ZSV8cXmmv2CCMlKzvohSIoUt4kjeKDQRBEAQFB4IgLZGqxGUx+vgfnxVEUcvDLIO5mYo61d6Nl2YyICWEigwNJxIFA40BGaJ38j4gdOuT5Ojff6e6+23xar+wwpvd9oXzHvnJsfhkQIWJtWs2yVL+liNOnJno3PziOzw8/QkcyQiCIAgKDgRBWiSV2xa86cAJ2ipB2fRio1ZkWErYioQTBSoyzISjz1caWaJ37Zqg8uuX6BJw+3aVNmyPqnNQVVuxe+mSlz9SZsVHlRtFf8LwxJ7EGCh/68jyRKdol+o5evoTyk6BOhzJCIIgCAoOBEFantiIXzxMUXzKv5Jn7OxmfX2khGZpJkMg0H3cUSEQFpLQDWKO3qPnCbVfeGI7EBnd+uxRevsLbc3u5etnTuQPrhir5wUtVJgi9uTKsLXlb3k222PMh885BN6RhSMZQRAEQcGBIEiLxJC59x4Vx2hrBCh5yzdR9SmGsHRDzgqRcHSzF41stsH7lnSHHhE7OwQM2OEYOjS5Ldu8as+SIRWbZr+tYImvreVv6yxLxQZL3yeRMNluw195v7WXAkYQBEEQFBwIcpNjLs7RMoKl7G3TwEhldEWGI8auYSsdAu/c6KXtk+gQNCgDrW1ppnhx1bQv1QrGVw9J4oJ9Fakg78VBwWYztz/yo9uQKYvRogiCIAgKDgRBWjSiUecs1GoNKGfNNFZusCzhiEB4pSNxvHXwSte7n1mOVrZgzDnqXrb8zR8cBV1gtb1iA94Z+j45KNlsIfDuLR0envExWhRBEARpy7BoAgRpLbcHVAaWabrNQaUlM3WMBUMVqdj01XsXPh/xR/mm2eONucec27qpK7Z9+45zdX5ENc9CR0O7hZyDghBTO21Oh0mLnsaBiyAIgrR5FwZNcOP5/rvvR1+8WO6hUikNNTV656DeQQfuu29EYmO2uWjholHnz1/o6ujoUMXzvJJhGEEURZblOFM7t3ZltwQFJg0YMKDR/RGOHz/uvHHDxrEcxwkUlu6EDBo0aG2/fmEFTWGb9PTjzklJBwedyjwVWlhY1Flv0KsdHRxrOnb0zgkNDU28/4H77YqDX/jTwlHFxSUdoQCTm5tbyVMTn7ruXfytW7aGJicnR6nVaoPZbFbExMSs7BvW1+aSrzt37gw6eOBgjFKpNEBYjUhtBO+F5OCLUB2VM+n1NRp6LGWTnpm0xK4Pq7tPLld0nDCQNA4n1ERNO0HDKE3VQeq8I0GGc4dHVe1eBMnNOzR9hy1tqzkcjMpBZxIkVWZfBBu85/Q1HLw9bl4FeLVDEARBEBQcN5wVK36P+f33PyZRdySaOuxEqVSR02dOL2iM4EhLS3Oj251EtxdLnWTq8zBE7iDP1JY6pX9LiIz8z+ZpH01rVHjHL4uXvHb48OH3zCaz5KkqFAoCzjkVHAsbs92TJ0+qly9f8fy+xH33GI3GWNHamaYPs7KySELC3l2VlZWzHh336Dpbtnks7ZjbsmXLn6cPo8EO7du3X1qf4Pjrry1jjh079obZbCl9Gtav3y76wGbBsW3b9rjkQ4c/NNeWrBWvEAXwOxUjpJ17u+X2Cg5V11sPCCe2TZS22VRpHLAtahuDSBd4S+mYVOlKwpiUVWFFSavj6D5THEOHrNLces/KtlTO1Tnyv3MLD28cpRKqgozUNjZXppI6I3LEyPPEnJMaWpO+M9ARc2IQBEGQNg6GVN1g1v257nFRFCSxwbIsAce0/GK55+nTZxr8XhReKPQ16A2xJpNJFhcWh1S0PJZ+JyRy//4DMa+//sZHDd3P7t3xgfv27YuhggBSjaXneOpYFRUWdm6MTTas39D/9dfe+P3v+L9n6vX6WDhea0ddEAUCQoo+H+3g6Giz03v+wnlfapNoeC0s3bt3r9fxK7tY5mnZF08cHR03art1y7TnXC6WXfTkeYvoA9vAeVgvsoDq3Klztr12oo7ruirGKUMFcVVsE3504bjAoaZ2FmvFR5WRgbv0WmXB0ZGmzZ/9XPjV6L9LFj03U3dkY1hb+Jyq/foVOoWPXKriBMsshz0ZM3T8mkWOOBNdYFX8zy/hVQ9BEARBwYHcMH76aeGo8+fP+4JDLc88gBNaUVkRd4E+39Dt0m12ZTm2bmYDFnDSBfFSywSO48Dpjk4+lBy1edPm8IbsZ/Xq1RPodiJhW4C8vwsXLjRYcCxftjx21qwvZ1VXV4+oG5TUmYbtajQa4uTsJM2iwALPeXl55dm67fy8fK28LaCrb9friof09HTn0pJSL3l9uq+C7v7dbe6ud/r0aba4uNhHSui2en+txYb83nTq3MluwaHyCyvU9Bm61knJ1G2/SZFmTsS6u/k8fVhtJkRnEomipjSMTVn7asn3T60+/9mwNRWb54wz5aXf1LkezneMm61Ttk9R2y3wLHJcT22nP7Yzpq2INARBEAS5FhhSdQPZtHHTI9ThjAJnsXbWQcJoMJLcvDx/+jC7Idulr9Vab/O+kfeRAQMGELPJRM5kZ5NVf6wilZWVkpNKl6jU1LT+Q4YOSbJnHxs3bgpPPZoaIUWMsMxlMxBFRcU+JzJOaHoF9rIr5AbyJb799rv3qSiIrBVEcHzx/Qf03x4ZGbmxa5cuWQzLCGWlZV67d+8eefRo6gAXF+dSW7d/7ty5AKn0a60w6tTp+k5+QX6BX1VV1QhYF4RKx44d7cp5uXCh0Le8vDwOXg/n0qNHj+9GP/zQPLVKrTeZzUoW8mqoKyrwglLr53esIe+1y6Cnphel747V8MVhOkZJxKbuNm7lNFs6AlryRSCsyAghV4zoq8o/6mvOPzryws7vX3a85c6tjqFDl2v6Dk+62T6vqi5BVU4RDy0k8QtmG0wg8BhicywbzMoxHHFSmP2r4n+eoukz7DG8AiIIgiAoOJBmZc6cueMvXrzoKc9uwB17OdwJnO08Khoauu38vHx/ycehjq5arSYxMTEkJCRY+tsdUXeQ0pISsmHDRiLvu6Kior29+1i7Zs0EEAYWUSPWHT/skzrpI/Py87VUcKTbs82fflr4Jt1Ondhwc3Nb++RTEz4eOnTolc5rOT2Pzw8dSvYJCwuzOZ8iv6DAV86tVqlU273rmR2hwq27de5Lp86dTttzPnm5uf4Q1gbbAPsEBgYepu9FapM6wV2Dy93ufeXdyuVT5yuISWvi6EeYNzffwK2bmeElh1tkWFIFlZvoe+8glIUqjq4NLU1a9VBF19AUza2DVzv0vmuNyvfWspvlc+sc+cjcwkN//texsqC/1HDR5i7jklqT8mJMJ/ZEV+37Pdr59gd34ZUQQRAEaYtgSNUNAO7+79i+/QF5dsPZ2ZkMHnyPFDIkc74RIVXFxcVeck6Iu7s7cXKybFev10s/nZyciCxIwH9UO6jtmomARPesrNNBkJMAx+/n151ERUVJOQoW0SSSfCo47Nnm119/M7a0tNQbtgdOuoODw+aXXn7plauIjTrsrYRFt+8lhze1b+9e2H9A/+vOWEBoGNhQni2CGRa7hF++JYRLfn2PHv6pzTGenAc+utHx7mdnqTgmW0GFAMMpL3Nzm1F9SAJErHW69SJLKkzSJcRXfT5tBL9l5k9F8x/dVrJw8hfVSWsjbobPrtKru+D8n/8u4Fgxm5GMa3soG4g0k8gRFxXxrU5Y8ixeCREEQRAUHEizsXrNmgnV1TopVAfu5oeHh5P7H3gAnOw6IQB5GA3ZdnJysldJSYmPLDg6deoEydHS32D7RUVF5MCBg+RSXkH9oUVXsn79+nH0R5T8+4gR95KoO+8gsnMNIVYF+QV2CY743fH3UsESDaIFfo2L+78FAwdGZjWVzWE2BBK45d8dHTW6M9dJzM/MPKU+l5PTU8qxsISmxXfu0tmu4wHBYp1HI5fDbQ7ajXxrLhf15FyOYbIdGLNFdEDI3A0Yz4wsPgQQnGZCRx6pNNPFxBCVviRMmfbny6ULJy87/+nQP8s3fD7RePaIZ2v+/LoNe2mhvl33bI1CkCpQ2aE4pB81ZoaYzxwKr4z/eQReDREEQZC2SIsOqUpNTXPPz8vzK6DOeFlpqTf0rtDpql30eoOmttcED/0gHB0dK93cXMs6dOiQ16lz5zN+ftr0oKCgqpZwDiAIqHM9Qg4/gtCh4fcOI126dCaurq6EigXp+bLSMm8435CQYLvCUaBClclkipHvqusNerJ16zYqNtSE2ovs2rkLkpnrkowVCsX2sLAwm3tZLFy4aBQkX8tiCQTN4CGDqYOeeSkPhfpVBQUFfrZuc9u27SFUCHWpzSkhPp18sh97/LG1TWn38wUFXQ0GQ6zFQWZg9mHCe++9rwYzQYrGZQ40FQb0fVHS92JM3UxRe/dCe8K3LIKjUJqlAjvBdn799bcpv/++chL0Q7H039BrXFxcyl96+cVXmmJ8thv1wawKV++8io1ffuBKagLLDVTkKCCvw0yae67jMvEhJZtLCR5EL3CkxkhtwPK+DhfSfPV5aSMqdy98TuXbJ8n17kn/cwi8I6s1XiidB46db1z3kZaIvNa+XA6emBkFcVGatdV7lz7lEvXYOoIgCIIgKDj+XTZt2hR+LO1Y/1OnskLOnz/fuaKiYoQC4tRtvHULd8whF0Drp83o26dPwoDbB2zp2bOn4d86nzVr1k6ggiBWng0IDb2VUEdWckg9PD3I2bNnJRFSVVU1LI+KK3sFR15tJSZZ0GQczyAnT5ysswX8TXaAqdjYNWhQ9No+fUKLbd3+X5s3P0SsZjdi74mV8kRgadeuHSkvL5dq8lwovNDR1m1mZWUFQ7Ur+ffAXr1Smtru53Jz/WURBhW8ILyMiqKxkvASSd14qm1DISHn0wAdO3bMs2d/0BCxtLTUU044h20VFxePtq5WBXkdJpNxbVOKYde7n1mu6nxLSvnG2R855iSFK1iTtgJODz4zUqlb8cYNdmlmx5JPwrMKUikoiANjIO5ChaZSd7E9o3JstX08XGOeXnn+4KrxLhfStFW8guoIe/JmRFINlb7yj4VUblsw2uXuScvxqwdBEARBwXGDOXjwYOf4+L9HpBxJiciljiIkEstOmtTPQODlCkt1Czi5FlfOEsJi3buhsrJyZFpq2sijKankz3XrVkbcHrF92LChSwJvCbyhsx57/t4TAI3s5L4YjhpHMm7cOOlv4JR29+tOkg8l14UmUYdYS/9kV2fn3DyLYy2H8ljboa4cqyjddd8VHBy8/42pb8y1ddvz580fV1JS6iNZmW6/V2AvEhcXJ/3N19eXdOrkI1W/gn1CLxF4H2+77bZ6HfWS4mIf6+aEnp6eTd6ROT8vz5+tLWUKwksuq1s7ZOqoExu8QJja6lsNqVBVUHDeF5LnL4VTsVdU87K8R952btcWHG6JzqDLgxVbvxldvW/5U04lp/wVrKCtMtKxwKmIKJgtx3QjBj2MRSo2GMFIXFmeVKo7JDnc8+z0joOeXNXaL5bOAx+dW73izSDCm7V2dXqH0DNOSVScWVu1b8UEFBwIgiAICo4byP79+303bNj4yKGkQ4NMRlMsYUhdwq3shF/WW0IQ6vF1mMt+QvO2i2UX4zZv3hyXkJAwZPjwYUuemPDEyht1fmv//HM8/REt94Jwc3OTOmbnF+RLvkpeXl5d5ShJcNiZBwFcOH/B17rvg3yHXgb+5uLqsvbuu2NWTX528mJbt3vixAnN9h07RsmJ7rAdSHaPj98tPTboDUSnq6mLLKmp0Q85XyAlvtcrOKBE7GX+mCBwTW37wsKizrI/SG0S361btwy1g7oGStJeMWb4WrHne/HixZGyQOhsZ54LJIzLVcdg6dChw0ovrw55giDWhW9BSFU/O8LZ7MU19pnlsFRu/zauOmntWC43JVSj4LXVJiq6GIWlO0RtlbFmExsMRzSsmZgIl20MHLyxw5Dn31H5hv5j1i4tLc1tyS9LXo0eNGj1kCGDk1vDxdJ54NjN1ftXJrnmHdKWm1n7qoPRa1E1T4i66GRA+cYvx0NeCH79IAiCICg4mpnp02dMgdwGnudj5FKrLHVWZOfWbLa/1KfsLMqvlR15uMNdUVExcunSZe4pKUcjJk58alrv4N7lzXl+f/31Vxg02YPHsuCABO558+ZfJjJqQ51qnVb7SuNCozm6zY7yrAaEkkUOjNzs4uxSrjfoHTQaTaVPx445gbcEHvb397erYcOfa9c9XllROdK6ad3h5MMk6WDSZT04ZDiOhTK0cPyJ9W0bcm6IeKlxYEMT5q/FqVOnlJbwJotdvL298r7/4bunr/ea9959753ExH0jZcHQpWtXuzqMn6fnzlo1h3vwwbgFcQ/Gbf83PlsuMU+vhIU6x1G6pDWP8xl/R7kqBf8a+rEwSu0kOIvwkFIRmkJ8MFIyNSuaiIuSIdVOnRJdYp/72CVq3Marrb30t6VDfvtt6RSdTjdk+L3DF7emC6bzHWPnXlycFM4RXivQcxZtLZMLnyNOQRQMFYD7f39c02/EEqV3DxNBEARBEBQcTc+6desjfl2yZEppaZk3deyiZYccREFDREZ9AqS2mZy00MdRx48fj3r33ff8Jz87+d27745Jba7zXL9uwzg5T0GembE+FuvnLcJDJMXFJV5QScmvu59N1Y2KCou6lJSUjILXw8xGQEBA6iuvvLygscd+5PARr/j4+LqqWrWVpP7x/sgzK7KjbWsvEaiSBd22WcaS65CamjYg43iGc1OFvBUWFna+WH4xTj6+Tp07Z9f3mosXyz1lAaRWq7d37OhtV+jT+fMXfC0TCNLsXHxAz4CUf/vD7TQgLh6WmmM7gnRJa8eZU7cOc+UrQ0z0GGukPBZ434TaCY8GCA9pLIOYFogTxxM9z2abb71/ZYfBz7+j9Pln3hSMq0WLfn4jNTV1gFKpjPTw8Fjp09EnpzVdMJ36x8VXH1i9U306fny52b4gNWj7WEU/Sk7lOVHV+1ZMgkpj+BWEIAiCtAVuaFncLz7/YtLsL2fPLCkpHQ1iQ77zD46s2IzJrfI+5P1Bjsdnn342Z/Wq1VHNsb81q9dEpaenh4OjLp8XOO4cp5COQV7guUshYwIkYI8uOF9gcz+OAumuOneZI98Uxw+hYAaDYYgsMuRjtT52+TlZMEpOd8F5mwRHUNAtSfS8d8kCDGafFi1a9Ma11s/MzFRnZJzQ2Hr8VPj482a+TszVZ5eTJ0+qqd07g+iDc+nQwTMvODjYrhkwKIkr5RVBnoa3d15oqO2J+c2NY++70j0e+2qq1/O/3SXe8eQrJtdOiRoFyXbiBMKQ2pkORu6kbbvYgMsHR1/vomSyDO208e3Gzn7M4/G5r11NbHz/3fej33nn3Z/p5+JlaqNI+Gw4OWkqewT0MLS2i6bLwEfmlZuYbKVUmYuz4zrEw4VAelx94I+xxnNpbvgVhCAIgrQFbtgMx8svvzIjLTVtAH0Y2ZiwqcYghzKBo0z3Hz1v3vxP6NNvPTDqgSaNq9+4cdMj1rMbvXsHzYJStFDKV5AapwmcQqk0QSlW6EcB1ZPAHtAArzaPwybhAJWYIDFZECyhWd4dvRp9tzghIcE/cW9irFXyecKgQdGrOnfpkkWPT1nrOXFKlUpfVFjYeefOXffX1NTEgvApKSnxhmpNt9xyy3VnKqDcbJ8+fRJTUlKi4f0wGo0kKelQ1LOTn5sDITb+3btLHctLSku8Dh1KHvR3/N/DHnv8sZmBgb0O2HIOuedy/eVZMziHzp2v30+jpLjEp6qyKg5EH4wNLy9vu5LYDx8+7AVd5GVxSffNb978V5i7e7tig8Gopr/Tt11g4c9RUXdk/lsfdlW3PsV0meU+6v1ZFVvmja1OWv2IoiAjUK0QtXroFQGHDwJWFK4dagVCA2ZGYFZDIZBqE8kWwx/+tdMjM9+/2uqJifu0i3/++bVTp7KCIR9IuujUdql3d29f0hovmo59hiVrQmI3KjO2TK4ws0TkeTsuQjzRiSxx0RX2r9q3fFL7rsGf4tcQgiAIgoKjkZzOOq2cPn3GvLNnz/akDnY0OHQ3WmhYIwsdcHpYho385psFHzo7O78Ye09sk4TALF26bMjp06cD5X2p1eqtE5+eOK1376vnjJSXl7tfuHBhrFxKtbafxS5b9lWQD/0xLKJGpVIRH59O5xp7/BvWbxxHtxejVCoJzBL0CuyV9Nbbb8261vrp6cfDz507Z6lUVV4+svBCYRcqODLq289Dox+ce/To0f6QwwP7gnC3kydPRmV8nvG8s4uzFG5VXV0trQvvl7e31wu2nsMFKoQu+ccM9Dy5ruCAmSIQe3LJXOgLYo/NoEs8PdYhcngZCMhZX8waKwtrGPMGg0EKtXpj6hsvxMbe/a+HW7ne89wSWKoSl8XoDvzxuPnU/oHOKl5r5EViFERJeEgpHtY5CrVig44MolIw2cYOgRkdhr/0rmOf4VftDj93ztzx69etH0fVltTgUS7PLM+atfdoX9BaL5xO//nv/OL0XbEqYgwwsFCC2GzrBQgUKTHR9Q0HV49xDn9gocrPvn4vCIIgCNLaaNaQKshH+Pjj/31LxcZEOYSKt+duYDMihfNYypZGf/31Nx+lpKQ0STfkTRs3jaHOchQIGlgGDRq05lpiA+jo7Z1nnZidm2d74vj58xe6wl15sCsVTat8fDqeacyxQ0O+/fv3x8B7BLMOgijEjxx533Wr6bi7uxdeCg+rSxyvl/Dw8IKnJz09je4rQT5/eamqrIIwq7pQOycnzWaP9h4XbD2P4qKizrLY0Gg0G318rp8nUEAFgxxuB/+6duliV3M6mJWSE//lampyThL8BLEBvWSosDJB5aqWdAFwjnh4u9eU3x/t8PTC4ULwvV+ZlU7pTkqGOLKCpZkfzHiAQw2lbqFSGUcFA6vM4iKfmO/z9rahVxMbu3btChz/+BM//fnnusfNvBAtlxqWP/vyWG/fvn2rdbQdg2PSNbcOWaeWWwQxtoejCbxJapDoYi4Prdr727P4NYQgCIKg4GgE02fMmJ+bmzve1rK2NxpwgMApra6uHjF//tcfNXZ7c+fOGw/lWIXa6kjUCd86/N5h163CA93RZWcMnPbsM2d62bKv9GPpbjBrBK9VKpTQtby8sQ0OV6xYMVmlUkmhYDBjEhwcnHR3PXfjPTzaF0I4laXXBQcVooJt3d8DD9wf/9bbbz3TsaP3Yrj7L4e7scylPBF4zsvLO8/WRPqjKUc9c3LOSSFVIALc3NyK/fyu/1oqjIPkHBVKvL0zHGfOZAdCfo5cEEDOzZEX6Vw4VhJnLSm340oH2nPCty92eO7XQUzEuLdMLj4H1PSYIc9DScxUgPDEAWY1OoWu9Zz4033tHpz2+dW2M/OzzydP+/CjH+BzTz/vUZZ2FZd/9uXfqeC40Jovnk6RY76uYp3S1dQ2DGt7LocsTfRUz1Uf+vMhfWaiL0EQBEGQm5hmC6l6/fU3PsqmjpicCyDeyI7HNmLdKA+O9X8ff/Ly2+9cO3yoPjSOmsqIiAFbnV1cVlZWVLrfGhqSUF9X6YCePY/cFXPXC6IgsmbezFEH2aZO42oHtY6Kgd9ZhlluMBg1kIjdGFtA3w1/f/90bbduryiUSr1Br9cMGzbs1/peFzlw4EazmVdqNI6VVLi59AywrzoTVAqjy2N/rPwj+siRIwMhHMpsMquVSoWhfXuPwsDAXsm3R9y+1dbtOTg6VMbGxv5uMhnX8YLABgYGHq7vNSEhwYlUsE1VqpR6B7W65o477MuzuOWWwGROwU110jhVCgLPXe5WWhLJ9XqDxs9Pm97SLwhqv36FdJnOR0/4tOrQ2vG6w+tHm/NP9OIdXMudBz66oMPIN7++2uv++mtL2C+Lf3mpsLCwCySFyxXCrrzJwFjNBHi04hkOaaz1GpjlGDp0LZu8Ikhv4mvfc9uuc9CMEUKx2hFdYNWeJVMcAiJewa8jBEEQ5GaFaQ4h8OWXsydCaBHP89FXczpaGnI4DT3W+AlPTpg+ZszDm3FoIIgF3eEN4Vw7nxz1NXIN/ve/T17esX3HKPo5ipQLM1zrMy91fBdEEIabP5z2wWNQQKA128Z45pBX4YLHtzjoy0JrRI6I9jQDZDkpH8bEKLI6TFp0r2PQoAwcbQiCIMjNSJOHVK1ftz4CEkVBbMiJ0C0dOMbaMJioZUuXPb9//wEMcUCQWjR9hyddTWysXbM28uHRY5bt3rV7BP010vrzdF0suTVVzSk2VixfEfvjDz/GNbdtVH79CjV9710phY5Bgr0duRxQscpEFMRNIfhX/b14Co40BEEQBAWHDUC/hJ8XL34Z7nTCnczGJojLychQxQi2Bz+tYu2bFLlylcFgGPbtgm8/wKGBINdm2ocfvTFv7vxPSkpKRkPhBXjOuu9MPXqDuLVza7Zclvj4+IBvv/3u/fTjx8Ov/Fvpklc+Kv7x6dnVB/6IMp5LbZI+GM4Dx87Wa7ySNJBAztoZpSrypMookpqjW4bVpGwKw5GFIAiC3Iw0aQ7HL78sebmivCIOQiqgzGhjhAYscvlMaMhmuYN4KflcruXfFDMocmJvbVWhhD59QhNwaCDI1Vm58o/ovQl7hwiiEKXgOPpZtz2MSM7taK4KVcnJyV6zZ381EzqZl18s/0eIkrn4rL9X4YEx55LXT2FdvZKUnXqlq7r1TVR3C010DB3SoHLFqi69q5zC719q3v1dOOFNFkVla6gqXY+nIsVVJfhW7l40xTF06GM4whAEQRAUHNdg/fr1/cEJAVEA5WYb4/hbRITlsaOjI4RfrOQ4zgSN86p11XH6Gj2Rk3Ll2v4NzUWRXw/7bteu3coJE56YPnjI4GQcGghydaBXDC8IUk8de8SG3JdEEhzu7k0+wwEd4z+f+cXsyorKkfCZLi0t9czKOq309+9ed/dD5ReWWJy9bwxcLdS6onDVmaJw/vTf44p5ZZbCs1u2qmvvFFW3Pokq31sPqHvcbnMjTZjlKDyycZRjRW6kDuoGiHbkckizHAJhMxOidAdXRWpuG4U3PBAEQRAUHFfjj5WrJlGBEAVBWg1p7CdXr2GIVEo0PiysT3y/8PBdfn7adCif2b17dwGaCJaWlb6QfSY7KDn5cFRSUhJ0Lo6G19mbLyKXL4UwECjJGhISkjjx6aem9erVS4fDAkGuTWlJiRcLieGi/bOLcsU692aY4fjs05nzi4uLx8jXksrKypFUHPlSwVHXV4Vz75JlEi1Xmhp6+dNBe3WBJ0rG5O9QdsqfvXg6Rnd4HSlXu6Qqvf0zlV1vTVJr+yaougYnKTsFXvPaoPDqLjjdNmqJYduczoxo0kLfksuaJtZjE4FREI2C11buXvgyCg4EQRAEBcdVWL5seWxubq5/Q8ObZLHAcYp4v+7a9P/+979f3Rl95z/CIbr7dzd1J90LoGlc3INx2/fu3atdvmzF8+np6eFQ899W0QEzMBzLyc5PwgOjHvh+8uRnluBwQJD6KSkp9YEJRuiXYk+eljzDAZ9RTw+PJu0y/uKUl77Iycnxl2crYcIT9lVQkK+lf64THErPrqfLRI4oWTMxQUUpWBFCQAlHzAIrhW0ygpk4GCtClPlHQsS85FElf/9MuHadEiH8Sg2zH9q+iY697/pHiWO3Ea8vyDu4eqxTZY622mz7LK9lTYFUG+nx5RwJq9qzZIjzwLFYKQ9BEARBwWHNjh07RkGFp4Z0EpdLaHIcFw89LKZ9NO1jW1/7n//8J5sur8z64stJGzduBAejXtEhl8AF2rdvv/Kpp578uL7mdgiCXKK8vNxdzquy97MOwMyih2fTCY5333nvnfT09DD6uY++1PMHjo8l+XmXd76H8r4KN+9EVWV+hFlQEBFyLiR1wtfNSIjQN4WKkhqYqKXnqaCH7VCVH8GeKogwntg5oZJzyOA8tNmqLkEpID5UvqGJchUvt3ue/fjistc30Ssh4aEZoGD79VCEMrmsoK2M/3kKCg4EQRAEBYcVf8f/HZCZeSqEYezP27ByQOJvu+22XfaIDWtefuWlBQ6ODlWr/lhFrjXTYZ0fwrFcfGjorQlPT3r6/R49ephwGCCIbRw/ftwZBIcoCsTetCn58+7g4LDR08OzSUKqPv30s+f3798fYzabo6366dRVssvNy/W3Xh/ColhXrwJldT5MKlzD8xcv9dOg2zITllQJ9Nih6q1gJmqiD1QWHw8kxceHVCStIqLGPUXp1T1THRCxk3X2KGScvQinKyG8PTO+kjEFojOJRHU+I7Byx3dxLndNXIkjDkEQBEHBQUk6dGiQQqGIbEjituwUeHh4FHwy/X/vN+Y4ICSqorzCY8eOHQLc6bQWHdYOCCXh/x78vwVPPz1xKb79CGIfVGy0r6ioGNGQGwwyrq6upUG9g8obeyzffP3N2G1bt8UJvBAl52NZfHexTtwUFRZ1vPJ1Sk/fbLEgxbbrVe3sR92vdLsGUUEMvCjNiMDsh1pfFsrlJoeazx2K0wlKwhCRHkvDwkthloNjBW3V3mUTUXAgCIIgNwuNbmhxIuNEXyJeis+2FVhfdhCi7oxa3xQnM/XNN77q2bNnKogL2eGwvuvp4emx/O133p6IYgNBGkZJSWlH67BEu5zp2s9hu3btShp7HL/++tuwP/5Y9ZQ0o8ldPZQT9kcFkueJEyc1l91l6aDNlBLeRTsb9dUKEAjDkmZAqAlg9gM6jFeZ6U+YnaDPMILR/u3WiRuB6M0CYQozAyp3LxyJIw5BEAS5GWjUDAeUoczNzdUKYsNmN+QE0t69eyc11QmNf2L89Pfffz9AX6MfolKppIpZELLVt2/f+EnPPP2+n5+fgG87gjSM4qIiHxANDZnhsBIcjSqJ++ef6yJ+/OHHt6DBKMxsXKsqHuwPZmPOFxT49urVs64IBde+a1YNzxKG8FQzNOaei6XClXjpLgoxiWxdDkmDN8mwRMmKWt3hDaNd7hy/tq2PuX379vlmZmaG0u+a7jDDVllZ6Q5hfQaDwcHJyanS1dW1DDrXu7m5lbq4uJRptdqMHj16pAUGBmLFQQRBkJtBcJw/f95Xp9MNaWj+Bnwxq9Vq4uLiXNpUJ9SvX1jByPvuW7Rixe8anuchn2PXgw/GLXhq4lPL8e1GkMZRVFTUGZKxIULR3gpVMu6N6MGxe9fuwG++/uYjEBtys87rCRxYJz9fqlR1SXC4d8o2KRyJylxDjJJAMDeNcaSE9cZuC6aLoWKWSEx56cGG7MOeam3f4rY0xhISEvx37NjxwNatWx+k3y/OtU8H2bkZqYqYn59f+m233bYzNjZ2Zd++fQvxE4wgrY+0tDS3mpoa6Vrg6OhYFRwcXI5WaWOCo6iouLOcK2FvmIW8rsFgIFVVVW70YZN9GYC42Ld/f2xxUXHVq6+98uIdd9yR2RrejPRj6W5nz54NAAepkDp2JcUlPhUVFe7V1dUuRpNRKQqidDtWoVCYHB0ddK6ubmUeHh6F3h29c3x9u2b6+XVPDwxsm31EUlJSPM+ezQk4X1CgpePS5+LFMs9yarsaXY2zyWRS0jHKgdOrUHDUdhqdq5trMdjOy8srr2uXLll+3bun9+rVE++I1kNxSYm3RTvYf5NBzqlqaIWqQ4eSfb78cvZnVGTE1Cc25Ix2eM/P5eZ2t/6Tqn3nbM7ZI0FVmRNp4NkWaWcQHJy+PMSUm9afCo6NbWFsTZ8+fcqmTZv+Wysyghq5Oen1Z86cCaJL3IoVK56lQrdw5MiRC4cNG7YE+jrhpxlBWgczZsyYl5GRMVZ2lRYvXjwgKCioCi3ThgRHVWWlmxxeYW9IlZxkDiER1NEeEBUV1aSiYMoLL0x1cHSo7Nmzp6GlGj8zM1Odmpo64Nix9P6ns7KCLlwo7EIFWCzYxFqUwU1P8bIQDaY2RDyv7s4x3G2myn9zV9+up6GJYXi/fvH9B/TPuVkHbnr6cee01NQIarvwLGq74uJiHyosYv5hu8seM5eF1v/Ddl27nA4ODt4fRm0XEXF7dmu2D4wtvd6gMZtNSpPJrOTNZiW1A4iuumkJaiuBYS2/Sw03WVaAGcLrbfdi2UWvS6VnbUe+MQFLhw4d8uw9nxMnTmg+n/n5l7pqnZSwXl9zUZFcKkqRn5d3WaUqzruHiXPzLmCrci3Xrpb25onUTtS+Ko6eZ8k5/5v9S2jWrFkTf/vttynWQqEZCCorKwtatGhRNF3eiIuLWzB16tS56AIgSKsjqKamxgVcUDRFGxIcJurESE4bQ+wOWZbFBhAf//ewSc9MatLGe7eG3tpiwxBWr14TtX/fvljqNIfpdLphl/JZLI7claEq/wxZE+sam1nbU6/XDzmVeYpkncqa/MfKPxICAwOT74y+c+1DDz24/WYZsCuWr4jdt2/fPSdOnAw1Go2xksNI7SbnEV3fdhYb/3MsEovtTmWRrKzTk1etWp3Qq1fPlDuiotaNGfNwq+iHsH379pDU1LT+2dnZgecLCrpWVFS2p7aIlcVBXUM86YNq+cBKIsPqhgFdJ+HFF6e8NuK+EYnXFBwXy9wbIjjk/SiVSuLp6Wn3DMfMz2bOKSkpGQ3HL9hQAcq6UlVJSanXPy58nr5ZJO8QHTst80a3/C4J1eXuN+uXz44dO4Jef/313+sRGumQn9G9e/djHTt2POft7Z3n5eWVS3+ec3FxKTcYDGqYIYeFCgqvjIyMsEOHDkXVE4oVtHLlSujdNPa5555766GHHtpOEARBkJYrOKijLEghx4S54g68bcghFhAX/uEHH77x/gfvf3qzGjo9Pd15x/adD+7Zs2cwdZwg8TZKvuNr7WZcbcboWo0MZYdK/im/pnb9yMzMzMiTJ0+G/rn2z8cHD75nxaPjHl3XGm13OPmwFzSX3Ls3cQiEmIHtoOwo9IKwKndss+2sRYjlsfgP253KzKL2OxW87s9144YMHbJ0XAu0XcbxDOcdO3fevzdh7+CCggI/KuAjrc/5SlFw6XdRlq11z9XaLvJ6+RWpqanuZWUXvYUGOumwDycnp7Xu7vYljU95YcoXOTnn/OVZUXtDNyG8LvnwYa8wqxh+hUfX0yZemgchDbpjcoNEB4Fr7E3Ijz/+GPfNN998eA1BkO7r65s5dOjQpREREZvtjNeuq0C4bdu2kE2bNj2ye/fuEVcRH0FUlJDPPvtszoEDB9Z+/vnnbzXl+c2bN2+cHHPeqVOn7EceeaRNhMUhCII0i+BwUKv10h3H2rundn+h1iZ1QmnLv//eQ376aWHmE0+MX3UzGRgapW3csHHsrl27RxoMhiHyXXiY3ZHPX3agrvxpi/2ut37tXeuoCxcukF9+WdJlx46dDzz40INfDxs2NKk12C45Odlrw/qN4xISEobQ84iRHU6LyLhku6uHT9Vvt+vazjKuo6gYJkt+WeKza+euBx4eM/qre+65p0V0pZ83d974rVu3xVGnZpj1LIY9dpCRe1hoNJrN7u3bXzOXqrS0zBsa7MnioSE5W1ChKiAgwOYwx7ffevu948czwujxRdu7T3l8UHHKqZTKy/bJuXfK4eklS8UIxMQpLolOqVzuvys+IClf7v3BuXjcdInO77333pswu3AVsZEeFBSU9OSTT37cFCG2d999dypdptKHU5ctWxZLRc5bMAtypfDYtWsXmTRpktuCBQuebYrz27t3rxbCtuT9hIaG/oiCA0EQFByNoJ27e6F1c72G1OaXOn9bnO+opb8tJV26dM5qKU5dY/nu2+/HbNiwYaxerx9mHeoDtmrI3Vp7HDvZtlaPo/Py8qJnfTHL/+CBAxsfHTduZvfuLbNE8JkzZ9jVq9ZM3LZt6yjqLMbyZp4wLHPZeTW37eD9kkU02C43Nzf60xmf9Uw+dPh36Pfyb9lm65atoVQ8vgwV4uC45PF0NeFqr/B3c3Mr7n2dhnzFRUUd5bHbMEeagaZ/ZbauP2P6p1MOHkwaBCLH3v3KIoqeV/y9I+5dfOVdclW3PnsqPXtudSzNjFUJZnpwItGbGWKmzj7DUYdfsDT2+zdmPmCPCjre9WYxR+Plf+xm+sJZvHjxiGuJjWnTpj02bNiwZrkZ8vDDD2+F5csvv5z466+/TrlSdCQlJZGxY8f+smTJkkebaJdBBEEQBKmjUSVavDp0gFjshIaKDWvnrjY0Juqbrxd8dOTwEa/WbNQtf20Je2L8hJ9Wrlw5sbpaN8w6xKW5nOVrOZLyjIqVMxq1d2/ijLffevu3Hdt3hLQ0261c+Uf0m2++9dvmzX99YzSaYiXbMaQu4fhG2U62n7XtKJE7d+y8/8kJT/1w+F8Yo/PnzR83ffqM+VRsjAOxIX/u4BgbYxs5FI0KjuuKgaKioi7wObUOY7N1+/JnoJ2N4VTz5389bvv27aNAbNhbAQ/Wl8XG4MH3LJ88+Zl/5IepuvSu8nh83ih2yNT/CkFDvta7dE3gqchwVYjEheWJkrGMOwKzHyzcl2Fu6HutoCZm3Tudd7rtgYSb5csGKsnNmTNnxhXOOIRPrV2+fHmf5hIb1rz00kvf/fbbb2GdO3eGEMl0a4EA+R8ffPDBG+gWIAiCNMP3WmNeHH5beF779u0vlJWV1TloDQWqzigUClJdXT1i9uyvZiz6eeETrdGgMz/7fDKUdqTnEikLKXv6FTSn8ww2lqsFlRSXjP7f/z7pkpuX92lLyE84ffo0u/CnRW8lJiZCIniU7Ki2NNvxAh+dk5MT/eEHH3o99/xzb999d0zqjTiG99597519+/bHQJ6FVZJ3k20ftune3v264TvFxcUdZXFiz76l5OdaMeTpUX9J3F8W/zJi9arVE0AcyzMV9ogNODb6+dsVHR297tXXXv36WuuqugRV0QVi/pea8jM0xrNHIvRZB6ONZ1PCTReyAlyURn+WCg8DLxI9FSMMZxEeIsyINJfohVk1kR4/KxLFLdGbyU3Eq6+++vsVYoNQxz9r1apV99/I44DKhWvXrr1v1KhRa+hnmVgdU9D69evHxcTErGotpdQRBEFaC40uQg/JffAl35AcjiuR7ybn5+f7vfD8lNmtyZDQI2DiU09/C82qZKdQPqeWhDxTACFKcJyLf/7lVSrwJvybxwQVlt55+90l+/fv/wjyJmSHtiXaTq5+BML4s08/m7N27Z+Rzb3f11974xMQG/LdfpPJ1GSzPNbhffVVjyotLfVu0H6tREoHy6zoNaGOYOTChVL8e5S9Yl0WYiA2IiIitrz19puzbH2tslOgzini4e0eY7941+ftbUM7TPjm/5ioZ17UdwlfblS6pmqUDHFT8MSRNRMGbMAqqABRWgQC03SzHwzLEQeOEJ3SPcU5atwscpOwZs2ayNr8CWvSv/jii//7t44JhE6PHj3ghsFlMx3Tpk37Dl0DBEGQpkXR2A307h2UlJqaeqnsZiMcIavk1+iMjAxCndD3Pv7fR9NauhHX/bku4vvvf3gHcjXkJojgFLZUwMZwfDCjBN3YN6zfQExGk/q11699N7i5WLRw0ahff/1tCnVJo8TaRPD6eiy0BNtBeVdIZJ7z1ZxP6ZNvjLx/ZLOEvsDMxpEjRyJgX801WyZ/7uoTA9Rh9GhoSVx5P9frwbFjx86gb75e8CF0Ebd3dkveB8dxu/r16xf/4bQPpjfGJo6hQ1JgoQ+/0mcm+hrPJEcasg5EG88dDVNVFYc7KnlipodXIxDCw30byDGqTfRu8OwHpyAcbIMh2a6Dn/9Y1TXkpummC2VoyRWhVJCzQR3+f/VCuWzZsofDw8OPXTHOvebMmTP+hRdeWIguAoL8+0RERGxVq9V1hT+cnJyw03hbFBx9w/rGL1++Yhd9GN0UByQ77HA398CBA5A4Wv5vJunWx8KfFo6CJF4oSdpSZzWuBTj2tSErUVu2bCEODuqa5194/oZ9yX722czJW/7aMprA3WyOOtNm/oblZzQWi+gAwSZEzp//9cdOzs4vNHV41dfzvx6XmLgvFt4fOVSoqblihuP8tdaDkDeoUtXQHBF4nYODw9ZrVcFKSkry+Wr2VzPpucbYKzrlnBL6c1dwSPD+6TM+eb8pbeQQEJEDCyHPLjXmHnM2ZCdHGbMORhnOJEeIxae1birGV6BCoQaSzqVKuwpLofDa/CNyzUpoVqWtqdhQ0m2oOJLNDnxyvmvM0ytvli8ZqNQH+RHWz0HX7xuRs2ELL7744muzZ8+eaSWIpD4dKDgQpGXw7LPPLqY/FqMlWjeNDqnq27dvYe/g3vvBcZUb+TWl6IDE0Tlz5o5vicab89WcCXB3Xr4jC06SILSusvkgjmCmA0KZ1q798/Hffv1t2I3YL9y537Z124MQp9/UYUI3TnSY5Qpr0XPnzJ3RlMUOtm/bHrJy5R8TBcGSx9Cc40quckWdwAvXWgf6b1RVVQ1ryAyHHIbm6upa2qdP6D+Sxqkzqvl85hdf1uhqhjV0ZgPERq9evVJmzfpianO+55Bs7jLw0Y0ej82Z2umDPXe2f+LbB/kB497Se/XeSEdDlouSnqdSIEpGtEgKKHHLclKoVF34FYSY1T3H0ouwQFw5nhhFJpuLfXF6u7gPPr+ZvmR27dp1P7lidmPcuJYTLjZ27NiNUI7X+jloHPj3338HoIuAIAjSQgQHEHPXXauoQxQvJ9Y2leiodbSioHHd99//MLolGW7WF19OWrdu/TjZYW6OMCA5Qdd6aQ7kmQ5K1KJFP7+WkJDg35y2e+vNtz+0zklozbYDoQTnAP0w5s6b90lTbXfJkiUvwawZyzZv4rwsNqgYWOXmdu2StUWFhZ2txUMD9kRcXF2uuv2Zn30+p7S0VOoifkVVMJuOHcSGn59fxtx5c1680dcBTdiIA+1H/2+6z5tbhntNXjyUueu5Zwxd+y81q5zSHRQMcVOKxFnBEzUrEBV9L0GIwKKiizMnSH+n5Bh8ByztMPHH+9yGv3rT5Q/k5+drr3zu0UdbViPNMWPGzCVX5HJASXN0ERAEQZoGRVNsZPi9ww9s2LAx7dSpU1GyWGgK5AZ5IDqWLV3GOTo6Vo4d++83UIKZjU2bNo2B42pKh1ku/3ll5/CrrSPTVLMCcpUwSvQP3//4dmRkZLNUCYO8nKSkpCgQG/ZWIKpPXFh3zb6W7axt1pS2g33mnsv1nz59xpQ335zaqBDA7779bkxubp6/dS+Q5hQcABUc5b169dJdU3AUFfnIYV322E1+L0A4uV2lBwcUhzh3ztJF3J73RBYb8LNLly5nvv1uwTP/9nXB4ZY7M2GhDxcYc1LcjdlHBhrOHokwF54OMJfl+4q6cldRMAcShiOs2ilZdO90Ttmld0r7oOh1mr7DW0UzzqYQHBqNpqqlHePQoUOT3n333cue27ZtWxz98T5BEARBWobgAB544P7vZsz4NJQ+jGzKeHOrrtyRP/3401sOarUh7sG47f+WwRYuXDTqzz/X1c1sNNZhtr77bul0TKS472vdlbf4Y2JdszbZoWsK51l2cPPy8v1AVL0w5YUfm9J20MjtwIEDg+SZjcbazlpAWIsN679dbrtLQsO6WV5jbSdvD85r29Ztyr59+/49ZMjg5IZub/v2HaPoj6jGCjJbxIpl/EgdwEuut15xcbEPy1B7MQ0LqYLFw8PzspAt6CKekZERCgnxDRUb3t7eS6a++cYzLe3CqvINLaPLOmfyWN2dfFPuMWfRZNAQTmFiVZoqRcceLbeyRBOSk5Nz2Yypr6/vyZZ4nPfee+/i9evXz7B+LjMzUx0QEGBAVwFBEKSFCI7Ye2JTEhP3rUtISIhsiopVVxMdkCuxYMG376lUKv19I++74Q2x6JdR/18W//IydbwiG+swXyk0pNAQRurzAMm10ISNtPdoT5w04J8oCG82k8rKKlJSUkLKy8ulUB4GHEBRqHt9Y51neTuCwEdv3LiJjxwYubFfv34FTWE7KhbjIB8HEqCbwpG2Hl+S80n/ge3UavVWZ2fncsgXcHLSVLEcZ6L7Uuqqdc4VFRXtq6qq3AwGQ6z13fqmsF1t7wfQgpHLli57jgqOBs0Q/fzz4pH0PfaS85gaO7bqc+Tlv9Gxdt33uaSktKPYwK7bsm2t+3xM/2S61EUcxIY9fT1gXSn8T5SOefkbU19/DvoqtIaLrbJLb7izX0XaGPTzprH+vWPHjuda4nH+5z//2XyF4AjKy8vzo4IjA10FBEGQFiI4gEfHjZ154sSJ0KKiojEKBScl1TYVVjMdUfPmzf+YOpavDG7EXWR7gc7S3337/ftyNaqGhlFdLfwHnC2fTj4kuHdvcktQEOnevTv9UvYmjo6OkhMrO8ewzyoqOvLy88nJEyfI4SNHSFpaGjHoDXV32e1tynY1O8M+RUGMgSRyKjimN9Z2W7ZsCV2y5NcXoe9HY8SGfGdbnompFQrxvt18M6ntDlDH84hvt26ZISHB18xFSD2a6n7mzJmgtLRjA44ePdof7txDo0HZwW+s7QDoIwMzYePHP77K3m0c2H8AqjRFNbTpobXYuPLntcQAvN/u7a7fAbyktKRBFaqsbdrN11dqpgZFIHbs2DnK3upbstiA46CCfNXrr7/2QnBwMJZHbOFAMQKd7lK0ntFoVLfE4+zUqVM2seRx1CW45+bmdqc/UHAgCIK0JMHh5+cnPPnUkx9P/2S6D88L0eDINGVC8KWcDjF69uyvPlOpVC8MumtQ+o0w1Ddff/MR9Nmwdiwb4wyCowX26Rfej9x5552kb98+UJb0uq+n5wvxz8TL20ta/8GHHiTHj2eQrVu3kp07dkJlFdKUjvO+xH33JCUlLQoPD2/wLMepzFPq77/7/j0Qao2xnXX4FIwBZ2fndQNuH7A1KuqOdf/P3pUA1LD18SkSWdKi9GUncu0kvEiW6GXJkj3hWR6yhOz78uziWd6zPrvshJL1VfTs4eGKkEe9SKsSifrOf7rnvmm693Zn7sy9N87v++ZV19yZM2fOmfn9zn/74YcfXqp7nAYNG6SgLQJbyAIOBLidPRvyMj4+vhqOyeHbdwxriUvI2ZBEroIjMjLS6p9//rHja92gxxadGIkWY6GVK1d+bmlpEV+8uFG2IuuEQV7yVupzVlbJRo0aXVN17OSkZCu+sS/QLhjr5hYW8acCTzmdPnV6KPQ1V/GJxQaaA8F+U6dMatq0aQJ5hOs/srOzSzL/hjGuj+1UJF5fv35NMlWpwLFjx1zACpSQkGD75s2byhDrhf6mXeigKLCVlVUc2mLhZ5MmTSKcnJye60O7r169WvPx48cOUVFRTaDNYPmGxSfITiYTyQlly5alLeXo96QGDRpcg2ekUBZ/TREcHOxw584dF1jghYKsCbKkHtDu8uXLJ1pbW8dBe1Gfh2vy/mbixIkTzugeV4GYLNjAVRJq1kBMFhSNhTpO9erVu4mey+GtW7d+/i2Mb0igg8ZztdjY2JrwLIBnF7pu+pkAYxrGB7gj165d+z70d4cOwqbG5wPgEbdu3erw9u1bWzQuKsFPtFWBsQ1zsmrVqtGIG0T/73//i7G1tX3Zpk2baG21zUCMVKSQWvWPP3ZOFyrOgU1eMPEwNjYOmTFzxrjWrcV9iK1etXrs+fMX+nD1NWeTJSyYAIgkUx49ulNochYgrYUzW0oe54GBHp7Uvn37qRvXbsj/TVNhBPeuY8cOE6ZNn7aBb99NnTpt6f1792di9yVN+g5IKxJdIe3btw/s1r3rTiF9qyHr2JkzZ7xwimOuwdH5SH+eQAofMsR7tddgL7Wz8Rw6eMh169Zt5/FxuAgfxliIaN7c4c+evXpua9GixSsh+ibqcVSZSZMmn/z8ObsDjh/iOpbQg5lq2qwpdeP6DcjoxXl80lY32ZxH43ECEppae0gSaIaff/75d0SORjM+kt6+fbuePraVXQTQzc0tYAkC8zNvb+/dQE6VHUNG/vKlAQZyoiaR7KTo8+HDh2+Pj4+vAr9D0bMjR470UfeaoMr7ixcv6iHiVANIIlh48b+tWrWqT7t23BbtwLX47NmzXjdu3Ogg+0ii5lelQE5dXV2PIGJ2lMtCkRA4ffp0K9Rvo6VSqQPHdsvbLxOmN9zd3ff37dtX41jSZcuWTbxy5UoX/PfSpUsHNm7cWKm1efXq1aMPHjw4nkP7pSBCJk2aNJVP3Zv79+9b7tmzxy8sLKwbl3PCfzw9PTfPmDFjgxD3DrWf9p7Bf69YsaIfEoEp6ny3f//+B8Gdmsvc2bBhwzAYKzIBKuE6PgYPHrxWm+Lj0aNHppDkAjgMiECubR44cOCvkydPLjRD4rRp0xY/fPiwRWHPK6XvcTEufuCggcFQJCwwMJASumgZkA5M3LOystxWrVy1HpHQUY6OzePEuJZLly41CAk51w/xLN7iCddRgJ/Vq1dHN3cA5dLOpYDIYGaoUukGI1utxn0K7apbty61ePEi6sCBAGrvnr3MDF+86ybAd2/evAUN5fXQ2L9/v/vdyLtOuTm59Ko7X7EhsxyEN2jY4JqX1yB/qP0i9H2ePGXS5pq1ajzYsnnr/M+fP7tqIpRl9845LCw8iovggFUUPvcMzy/oo+4e3XdNELh4I5Ar1Ccd+M5XAMQdgRUO9w8fsYH65tJE34kziNgoWrCxsXmpiMg0atQoUd/aqo4QkhFWLmRVgkSI2kRNCfFrhc+JSPvNQhcJoqJMTpw4MfLYsWOjeJLrAkDEs9v69euXa3A8CVjhES9wRNswqH0ya9asMfb29pli3tN9+/a5ywo7atoP9HcR4ZIA6ULEPxoRsAktW7bkvbDz+PHjpmhsuOK/lbkbbty40XvXrl3TeVyDBBFQybx583aj+/dgwoQJM9QRejB+kBhdzxx3XPsJimfChsTysjFjxuzT5B6+e/euIqufSqr73WfPnjVQZ+7ANR84cGAiItFePMeKfHxMnz69ha2t7fMFCxaMEIOvMOHn57c0NDTUg++chP/AdcPWpk2b4AEDBqxzdHRUyKeTkpJsGPdBev369Spcxn9xsTph3HifnalpqWbhYeE5YBkQS3SgB5j7yhUr18+dN+dnMV5gAQcCoLCfMz4nX8IMGuHHH3+khg4bQpmb02JbHovAtVYEW5TgtgExQ4ScsrKqQP26bj0IMkoT4gz3KzU11fLkyUCnHj08OAXpP3361Pj4sROjID7CoBh3awu2sMgIdWi/fn03DR8xXNTqyx4eHhGlSpWa6r9m7ZovX7504BNvwhSPz58/r3f1ylW71m1aq0WQ38lWTflYN+DeOzg4hE4QoVI8uBzgNrHTMnPpE6Y44iI2ZPuHo2ub5era8T6h8EUL1apVi6Lyx0ZItm3bNgeRKF/SO8Li3LlzTQMCAsbJViELIyBqWTYQYTNatGjR9sKElpmZGYhLqkKFCnRSk/j4eOrt27cUM36HSXTQ8SReXl4OgwcP9p84ceIOMfpj6NChfxTSF/I+qF69urRSpUovjYyMPn348ME0LS3NDJHQpkrIp+TVq1eScePG2XXs2PHo8uXLRUmfjNpuOnbs2PNKVtrptiPBFon6/A3qc6PXr1/XwC5trP0l6D5KkOBoANnYEBFeocY5HZX1F/QVuG1BghZwR3vx4oUEu3Ux5zn8Z8eOHTORsGqCxOoUfZ03SMx5bMyroyVRds0gICwtLRPAYvTx48cyYHHE7lWK+hvdB8nIkSP/HDFixJLRo0cHCN3mw4cPd1i5cuX6wsRRlSpV6HmZnp5O/w3zEolQhcLjypUrErS5q2nx4Cxwiot5E+fMme0/NS3N8v69+xTORiOUCxdTdLx//77XyhWrsubOmzvC3r6OYKslUGzwn39e2cF5+PjU42w66AFGDR/+E+XZx1MuNOB4QlVmx4QT90enTp3o/kHEWf4ZH+IsK6rmfDfyrjNXwXHo0OHxaIB78HVLwv1dtmzZwLE+Y+d27Kgd8yTqu/upKakrtmzZWhJSMWsilNE9cbp1+3Y7dQVHcnKyFddEULh9qM/Cu3brulOMPqFT4rJqmPAdp1z6Elt70BYxbrzPXPcu7jcpgiIHRPoCN7KKYl6/ft313r17lqrcR/QVP/74YwB6YSsNuEtNTbVARFVeNBBWVRs2bHhN7HbNmDFjoax2SKHkGly8gFgX5k514MABN39//zWKjgnxhPCugQ1cg2V1nBQ9P6jLly+DKxZYhwqQlr17904Gl53jx4/3EKovYLV61KhRfyoj6kDS+/Xr9xv4shc2BhGZNnz06FEL1H7vO3fuOLNJNfS5n5+f0erVq2cJeT/hGhQQf9otDQpVtmrVKkRZ21E7bc6fP99XZuHKR4ThOiBBAuqfQ+zvPXjwwGzYsGFXKQUugR4eHjtbtmx5QdXC7qlTp1qBJUZGxOV99Ndff1GIeJfZvn37z/o2nxluavmuGQQGGttH27dvf7xu3boqswtCfMuhQ4fGMq0p+NrRNc+BuJr+/ftfEKrNSDiuQX3qpmhe1qpVi+rduzeF5rbSuGCIrUZjGhL6gKshe1FAAtYOiFlZu3btVCH7urjYN3PVqpWzRv885nc0aV24FvdSV3QAGYLMWCtXrPz0x84dghSsi45+ZoxuBjy8nfkEv+dZNijK2LgE5es7EdIGy2+0sgezpmDGiXTu3Jl6l/AOKffdvALJmW5VT58+bcSlHWgiVIu4GuGG0yNzFTuY3Jqbmx+FTETNHLQbqNe3X98LUVFPmiKl78Q3CB+La+kjaTN19n/+/LlRChIc4C7HxSqFLWhVqlaJ+uGHVi/F6I93iYkVhZqvXMUGQsSon0ct7NWrVzih7kUXsAqMiNk85ksNVs2FJJnawuLFi5cU9vxDhEAuOOzs7B6Ibc2BuBIFFgia3bdt2/a0s7PzaUSgXnAJIGa4UEnYQmPq1Km00DA2LjzhGJCevn370hviAdTKlSvBdS0fwUEElUJz/KQQ4wEEgkxssFfopbAy7+PjM9fFxUXtzGM1atTIQdu1bt26XWOQvXyiIzQ0lNq0aVMUOvYeYfhHtDHrGmihgT5b6OXlVWjxYwhuR9uviORuWLJkyVaWa5Rk69at8ypVqvScGdcBlg2W2KDPOW7cuFnqxqt07979Gtp6MFbf5ee8d+8ehcTrKHViBbQFBSJdCoHV06dPn8AlBrJnz57hsIFgQ8+1rbI4Kfm1I1GzDonctkIssKD7sQ4WbNjzEuKC0b9RtWvXVmcxlELCkd58fX0pJPghLoZp+QBLB8S/VEZirL9Q/W2ojZs6ffo0n4oVK+6RrZgLWj0ZSAz2eY+Nja3uM3bceiGOGxwU5JWakuopW2HlITbyqitP9J0gFxvY7UlMMK0ZAwYOoBwdm8sJPNd+x0HesMJ988bNKup+78zpoGGoz2iff659h/sHLBsQHKxtsYHhNXjQqvLlyx/nY9nC/QaxK5AiF4kO08K+k5SYZJOR8aEX18B6Whii/9lUtBGttkFyUrKNUMUl1RWcMsEb7u09eFX//v0uUARFGoiwbKJYLjywCgokk/QOf4Drqqur658ssQFE8eaQIUNWQ0zKmjVrZoC7KBexAYRRkdjo2rUrrGJTiHyrJTYUkHfq999/p+bNm0cLF5bosEPtPKU535h+iG0VMDMzC0XEezAEDHMRG4oArkFz5swZxRrPkp07d04X6r4OHz48nCk2kHgIR2ihjthgAjKH7tixYwTUmGG3F+I6EDGWv+AWLly4nTmG8Dn5BMfDd5AA+5F9Tlg5hyxK+jB3Ro8evYktNkCMgujlm3AFAtllYyyQfe1IpB/RtM2ofesViQ0knKhff/1VLbHBBnjgdOzYETLOgVt5vjkJFht4vhQpwVG9RvWc6TOmTUAE7igmFEKLjtw8YeASHR3dYMaMmQs1XV24GhHhhgk8F9IsXw3PpWg3KlgFwmJDKBcqdUQHWFLgJ3pAyR/sfPpcRjKd0YOpjjr7X70aURPMznyKP+K+Rt8LHT9h/KxmzZrqLAUhrGqhiXYUiyY+fZeTm0N9+vTJVZ2+e5uQYAsxN1hAqwN5Ni30vwoVLEXrKyQ4rfD5xBYdDLer8AED+m8YMnRIIKGVRR+QwliB6JCTTFgZJL3E/T01cODAyJSUFBcmaWrcuPFVIIrjx/OL5woKCnJkrU7T+OWXX6gFCxZQ6D2u8Rzv3r07JBWh4z6Y4wHiDyCrGd9jBwQEuDGzcFEyd6ALFy60c3NzE6xuV48ePSIQQR/GFtGIxM/U9NhTpkxZjtPzwvHBSrFly5YxmookCNJnfSyB4H34BVyCGP0mBYukpucE0r5x48YCouOPP/6Ypeu5A5nWkBjPN282b97ccdiwYceFOD6414ELGvPaIXsUZNvie0zIaCbLDCcf3zB/jh49ChnBNObUkEly7ty51PLly/ONEWg3eh6MLTKCA1CvXr00v6l+vpBDHxNzIZEjI0IQKxJ5J9J5rf/aUXyPFRoa1gOsGyASuAbv4joRrp1dqX79+9GfY/KvTeDzSepJKBeXtnIiZ8hxUOJgdkYgmkr8efnPnlCHAhN1LueRBdGHD/IatK5dOxeprh9Krp06HkKTMJCvQKZTOBsWU6vvIDBbnmCAq9hGX6lQoUKcWP0AiQO0Zd3A8TvoQZoodpIAAu1i2rRpv0FiAzYBQfOjG7hyoBfdeNJL6gORg90sUSD18vLy19RPfv78+TvZYgMRKNpNV0hUrlyZ2rlzJ8ST5CM4sGCFSJQLn2OuQWC2HVyCuKbuVBddunS5CWmTGeNZwshwxAuIUMaGhYVNl12DFAK8/fz8NgvRXgVWGer48eM0T1q7du0qfE6wbAgVBA8ZjCA9LvO8sEIvlUrL6HLu/PrrrysoRuYqNA5bC1WvhDE/V4MLH3NsQ0A2n2PdvHnTlh2PAwvJSBRCUg5B+wasHaxM4JLDhw/7wAJHkREcAEhdO2my75TixYtfwsRcSKKC/e1BdAQFBQ86cfyEM69JjyYEHA9MTVyDXGGztbWlhgzxlosNsd2oVPVHHnF2pc3ftMjjaeVIQIS4sP0ePXxkevfu3daMAnjqD8T/CiGGor7Ti1VtMEc7NHf4EwtJriKZ/h6lXt8lJyVVZFRP53BzQNh9pczMzUVJvQfm70+fPplo06UKxi0Us9qxfYcnoZXfFjZv3uwjewmzFxQkkELT2dn5BuTAJz2lGpBVRxagKhcbv/zyy2BfX1+Nsj1Bik32Z/7+/pSLi4so11GpUiVq27ZtBdyrEOHdxPVYZ8+edWB9JJ0wYcJ0Me8Du0YL4Pbt2zZ8j7d7925526Geg6psUlxRu3btLMg+xPwMLCngMoMtKiDQNLVssAG1OOC4zPt78eLFPrqaO0hc9JLVqqD7ed26dd3UrenBFStXruzHftbt3bu3G9fjoHFQYBFg06ZNtIuiGEBCGgRqvjm5evXqT4hbDy8yggMA/pPjxo+bhchLhJCiI/c/Cwd9TEjHunv3Hj+p9DEnJX0u5FzTFy9i7OE4XIKdcaAvbH379aEqVqxICS2q+MLe3p6qK6krt8DwWa1nTFBVqzOukJmKq2UIr+yXKlUqeNDAgev06cUOWTnQ9URoMiZTU1IL7TuoWyMXKWoSe9r6ZGhAV6A3NzMTJduPJjU4+IoNmUXJKSDg4PiIiL9qUgTfFMDH2d3dfZ8i0QF+64h0+UEBPgiOhGJtpMfyA/po//79JxkERIqEgm/nzp01chkKCwuzZ+fz79+/P4VEoKjXAwt04IPOBhQZ43KcoKAgL2bbQdh6enqGin0/2GQ6Pj6+mkCi8ieh26pg3kkYLnlSdB98xOijrl277mb+ffPmzfa6mjuIqB/D1wsWQXD3FOt8sGgJ7mnM/j516pQ3l2NADRZGymG8MADxIqL2VY8ePaj27f+7TXfu3IHEAhod01AXN71LF/ebY8aMng+iAxfEExJgVQAy9jHzY7c9u3dzWuG4ffuOC6Qz5ZqZCKe5bd7cgU5HhsmTkLEqXIHJK85IwCTB6hJmuv3oKxnp6YUGPkdGRjpztQwxLVOdOnc61KChOCsNfAGuXVZWVrGa3EfIU1644EiWx0lwGXOwf9myZY+amZu9FUVwvEu05ePqpenigcyVz3nb1m2zCcX89rBo0aJls2fPHiMjPwWEB2zXr1+fCIGsID4guBwsH0CKSe9RzGwyQKo3C5Fyc8WKFfniNiB/P2S90QYQEabatGmTbwxcvny5F5djyIJp5f3Su3dvrWRDAhck9iKNhoeUQsC/GG2FIovKqt7D53yqkasDGemWz3NGfROdAbJRaWoRVAcQg8O8doiVgdo26n4f3JlYQpqO2dAGQNgICUNd3WzPPp6XvId4rwKffUw4hQSssmd/yQYB4XzqlPqrZFCgBgg2V+KHrRudOnemSpYsqdUgcXVgZ1eLc4FBOQFE//v0KctE1T6QxQosQ1yzekEfQf9BQoFOnTod0seXe40aNZ6oUwFeoVhD+JT1qVDfx9TUVDOKB6eHc5QpUybdzs4uS4xrT0pKsuY7bjQRHDh4HrJ8/bJk6WRCMb89QBpJyKI0dOjQFUqEh1x8vHr1ymP37t1/TJky5RgIEHADgZSWUEVaX7Le6AKwig8uK5oeJyIioiZ7FXXWrFn0u0xbmDZtWoHPNm/ePECd70K2LgVETyvZ7djB2OosMBUGvgH/6qBz586K3rP0ar9Y5wQrAssSRNcK0eHUkU6cOHGGNk4EqXDZVjAolKjOd8HCy0ggQGPmzJlac9OH+CpIgV3kBQcAfPV79uq5AxFOwUUHdmcyNDB0DjwZqJbf2cWLFxsAwfma85WXdaN+/fq0hQOfX9dgEkTwlTU1NeVNGlF/GCJBofQGPZJKHbKzs135ZFmCny1btryERFEWpYeoXqO6VJMMTbk5uSqV5927d62gsm0uxe/4UPlUrGuHGhxYPPEt4sgrw9d/NVxcYKXzxImTzhTBN4lx48btAeHx888/L7K1tT1Nqa6ATQsQcAOBuh7r1q0LgnoFIEL69OlzBALPodr2d9J14EolSPVmRGy8KcYqKrjhoj7V6sVANWQIWGXe6wMHDqhVvyQmJqYeld86E62tdkO1bSGPx46zEBpQ0E7JeUPEPC+6J0+Z9xYquetq4sA7s23btlHaOl/z5s3zpZZVNwkPFBNkjutmzZrRRTa1CVaq3KIrOAA+PmP3uLp2PIoUW6jQogOOB+IBUi8eO3bcpbD9o59GNwJ3Ki6CAUgRuHDBuZo7Ngf3Fr2J3WBNMEidyjmOA/dDTm5Ot5yvX5WaAZ8+edKIzsrEwf0G32v081LLli30ttbC/2xsYsBixVdwoOtTGQyUlJRs/enTJzeu1iHcHktLC/FS4r5LrKSJgMbWCr6iQ1a7x2nvnr2Tox5HlaEIvlmMHDnyUGBgYPd9+/Y1Hzp06BBEUHAu+8Iy1tEiBJFOz6NHj66fPXv2XhAg7u7u5xcsWDAdqh9/i/3VunXrYL71AtiQ1SOQA9Kp6wJsVxFY3b1y5YpdYd+TVbaWo0aNGlrLcpiVlWUs4OGkTk5OohL/8uXLJ7E/a9So0TWx+8mcldjk/fv3uhIc0kGDBmk1VrRu3br5rGCxsbGFRntDVii265mQ5F9dgJVTKBcunQsOwLTp0zYgwnkJRAcm8YIpKvBzpwycL18q3B8Um7m4kGacmapMmTLyOAlZele9ejmVKlWK+t///kdx7V/5vrlUsOoH/ms7rq5oOCtTjRrVn/zg9MNzfX2xW1awfCNLRMDp2vAYMjY2Vmm5gQxV8mKBHIQuFifmFhaiWThSUlIs8H3lIzqg+CX8j+vYYIoOOG9GRobHtm3b5xBa/u0D/MzB6gEFuMDy4e/v32PIkCE/SSSSPVwESEJCguuZM2eWQ0VzECCQAQsEyPXr16t8A90kHShQgg2oXcH8GzJGdejQQScXBSu4EETOvJeyKtkqgd65hoxxIdWmhUOAmI18EEpEKoOZggQjsnTV2hYc5rqaPEOHDtVqJkxra+s4luAo1MLBqg5PA8cHaxtQ6FMIFKf0BIsWL1oyefKUMg8fPKQL+DEJFV8w3XuePHnSCOIMHFs4Kp3M8fFvKvM5D7S1atUq8nzI+iQ2cnPzMuFCmyCbEZA/Pq47sEpfS4nLE2QSgjoSuOChun2G41xq16kTSekxypUrl4z6LgSsEHxINxJ7GSoFR3KyNdd0uPKif+g7FiKlxEVzxiQzM7Msn/GCXalMTU0DGzdpfDXiaoRbdnZ2B67CBVtHwIr4999/t0Kio9/IkSMOUQTfDZBQiIYN/Ur7tYPvN7yM792754S21jIfZ0khAgRWy+mCX2jzBp/qnj177pg0adLWotovjo6OgtTeYRVAo92aIPGHLgBzvVWrVnQxM4y7d++CO+UeVd8bPXp0ANMyIFaaU0VgW1c0AVitxG4veiazBYe0YcOGWrdwQLp1XYwxbYpRhsjLd+0fPnwo1FqPnnGtmX937dqVXjjWBerVq0fHcyQkaEY19MLCgeHvv2ZGterVonD2HaGIO5BsdEznyLt3nZTtc+f2HZuUlBRrLm4tTFEEYqNs2TKYnOtNn+IuBMKW9v49LTb4kObixYtnK/u3f/+NqwbF/qCyNpcVenpl6stXqqYWzd98ULdu3QxV11/YNZqUNklXLThSeFXyxvubiyQ4kpKSrD5+/OiuSewGekCmz507Z3WHDh2OgwWTz7yGOQZBcqgdzsePHR/5119/VSM0/PtFs2bN4n/66afjUD0ZKmofOXKkwcKFC1t4enpOqFWrFojRwqwgEllq2Ylg+YAKvkWtD1xcXARbob1161a+ZdMWLVro9NrYPurqWDiwyMCbNtuLnkduQh2revXqoscVFCtWrICLLxJrz3VxXh2Nr3Btn7Ns2bL54nxgIa+w71y/fj2fmbFJkyZ6NS+LvOAATPXz861gVWEfjgcQSHHQxCzqcZTSKLh3797ZZmVluXJdpYfjwko9VE0F8PVXFxufP3+mkpOSeYoWA3au8Xx48+ZtFewepfbAy/PNp0qZlAqpVLmS3rpTMdqbwxQR6gAT9bJlyqYVRuy5CtU8UW5IlS5dOtjM3FyUlLhJiUk22IrCFyVKlKCF2tRpfr/ByhrXcYIBglmWDa7Djh1/ENcqAiZJy4Gqz5Ct6eDBg/3BDWvr1q3txo8f36Nx48ZbqUIyYEEFXxAe27dvLzKFJlu1anVeqGOxs+CAW5MugV2TmXj48KGpPt4HJHoFLVJZvnz5RDKjRR9f17R9TmNj40zm3zIXQJVg1z6TSCQ67TdIivTNCQ672nZZkydNmgZF4HANCU3A9I2PjY2tppw0v6mCSbC6LiR4tRbaCIX+AJq6gYmFtLQ0ILYUl4xDzP1UPQgTExMrsvcv/Nh5PyHDB1LuCdQ3BjpuQdYnpqblkrg8WNQXHQYgOFD/NRal/94lJtpggcXV8oJRoUIFuduHl9egdeg44Tlfc3jHc4C4f/3qdc0Vy1eMJ69OAmWANJxDhgwJRCLiZxAgUIW7Y8eOiygVdT82b9680NfXd1VRuD4bG5uXQhzn0qVL+aqHQfyEpaWlTq/N2tq6QOVx9O6y0bd7sG3btn579uzxo1S783GCmBkHCWhIa9Wq9UDbJ2Vbd7Kzs1Xmm1YksKH+hi5Rt27db09w0CssDs3ioTAgIhiCFQaUBZ6aQgpSRf/+b3x8Ze6kOU9wIPVKZ4HSN8HBvI64uH+p9PR03qlNVWVCSk1JteTqKpMrCyJmmxr1ES9evDDMyfnKaa5g1zXYyquoAh79NNo4IyO9LNf7gvva1NRUNPcBppDkGzBvZf1fkanuHt0j2rRpHVwMCXQ+Vg6ctQpS5Z4/f6Efl/o6BN83oAr38uXL54P4GDFixBJEaG8qEh5Xr1519/DwOKXvpEkoN0pZohQ5Ya5atapeXCBOcIKhw4xGBXDgwAE3KES5ZcuWeUKKDYAuLByqvBe+RYCLtL63UTbe86Wp1lbtDXXnJB8U19cOd/vR7XZsbOyGgwcPIX7x1Zlr5W9F+Pz5c4fEd3RGiQIP63cJ7yrRpAp4FUdPQxAcJUuV1OsB/DImBlQ1rxgBQEUbm9fK9qNrSHAkzNjSUqJEiSx9n/zgb5md/aUbW8Sp038wZs1UvESSU5KtP3zI9OTaf7hOhbmFOO5U9Jx4964SVxGO+0iestciv1D1Guzl/+iR1CElJcUTHqDgKsUFYOGQxXNAqly/OnVqD65Tp04modQE6gICjGEDdxgFK9SSuLg4CgglZMnS12uATF5CHCc1NdWC+TdUF9cHQE2OZ8+eyf/Wds2Ge/fuWUL2KXC1hoQo//zzT52///67BcMaLYp/S8mSJbX+LGO7+xDoheAwZwlRnbcJSj58s4IDMGLkiEPPnj+XRN6JdMapZjWpBwCiJV1JFVBI/8n32MwVYP3KUJUrX0mWSh/TPv8GBtyJoyxGRWlmByRkjL7lyZ/+Pt2Mq1jDAOtcebPySlcjU5JTrD59+kRxETPMWipiBYzTYigp2Yo5FrgCRJGlpWU+wVGzZs3sAQP6b9i06TcrvgsJIFJAdCAS0uuPHTulK1Yun0teUQRcMWHChJ2QzGDBggXbY2JimCv9UNmcgkrmYBX5lvsAzaF8xObgwYNAtnXerqio/LHT6enpgqVQffTokSlklkIiwu7ly5f2aKsDBX/ZsSxiiQoCAjUEh5m+CQ6ox/FNCw7AsGHDVjyLflYfyAX8DeSXL4Cgffr4sYyiBxDOUMUHQIDwSq0+VBhnXi/gzZs3eQ9wGUnlWkUdDbSQGjWqP1K2Dx0ABZdtwL1tWVlZJvo+BlPTUi25jjt8fcbGxiEWFhZKrRDJyclWfEg3FoNiCg70kjflO5xxbJOFpcUb9r/17NUzPDIy8sKNGzed+c4XXIgRHcd5185dvYYOG3qcvKYIuKJevXppR44c6ePt7b1bKpUySaYEiuEdP378Uq9evcL1qc1CusAoclVik319gDppRJUB4lQiIiI6X7lypYuQFgpwcxk9ejTdX5s3byaTiUDI8Z5vYbx06dL68uyh04t/s4KjTp3amW4/ugUcDDjYC7uR8I1DAKBjFAgISUlJtUTkyp2PdQKaAivU6e/T851H12BWeL579y719u1bTu3DVhvYKleu/KJ27dqCuj5h4ZORka731aOTkvJEAZ+CjhDUbWdnp7TvkpKTrbkeE88B6D8LkTJUgUtB3oof/7lWsqRxMNvCgTHIy8v/8eOoJrCQwMe1Cq5fVqDT+dChw9kSieS2qho7BASqsGfPniF9+vQ5EhMTk0907N6920/fBIegiympqZZFoZ2FFU9VhDVr1owOCAgYr6nAAJIFgewQ34Leg1DFnM4YhH3a9VGgEYgv1kUe7/lYfVaWfnieayI2ioTgAHTo0P74uZBzx9HDkbeVA4sUIyOjTwUJZWJFIC9cCSVOGQqCAxN6fanBgd2p4GdYWHje7zm5nH3x4XuSepLbqvajU8YacG8fbOnpGea3b9+2cXBwiNfX8ZcsEwV4K6wP8T7QdxaFVAFPSkyqiMeNuuMaj1Eo5GhhaflGnGtOsUIPFze+9XAgSxdkIKtVq5bC+iX29nUy+/br+9vWLVstc77m8HKtwvEckCp327bts5Hg+Jm8Ugn4AiwdkB6X+VlcXFzNGzduVBG7+rOukFHQxVgK4l3f2mlra6t26vTNmzcP2L59+xx1hAaICci+A3W0IDuXubk5PLPpJDDwO2z6srpM8P2AnUwHsozqGlBaQVMUCcEBedYRcXmIiGkvLmldFQkERQr3HR1IbkBxrfaM9wWxEvPypVxw6EMtDty2WzdvUffu3sv7G+qR5HDrty9fvkQ0adz4qqp9kIjjXBQPk2sk1lxfxryU6LPgSElOtuIz7oB0W6jI7iUTu9Z5Yw/6RL3jYnJesmTJQAsLc1H6DdJQYpHK1VWO7itDiC9RLbb69u1z6W7kXec7d+44853XeJHgn3/+qb161eqxflP9fiOvK/0Bs0gjuP8JFewsFry8vPz37ds3mUFUJSdOnBiOBMc3GcsBiwLMvyF9MGT0KqrX4+Pjsx4JxA7KhAZUUW/bti1trahUqRJVrlw5MkkJ9FFw5Ms++f79e523CbKc6lRwgO909LNn9X/5ZckisS+2atUq0UhwyLPzcIU8jWh50wIZgxISEmwNwcWH4hbfwKwTEv00Gvzu6NUQoVL58gU+P/wMDAxEpCwnnwhRt79k7lRPW7dpHa16lahUBp9MRtBG+F7UkydQ6emSvk7+xMS8HPCcRa4BnaVJJelOSwMf6lzOjkvQb0AWxCJwkJmFdnujcvh4VdEXb1nBslAxNHiwl/8TdP/Rw8wDxgMf1ypoJ6TKPXs2xKhe/Xo3f/zxx9sUgc7h6ur6p8xnniZ/bdq0Wb127dqp+txmX1/fHTLBIQfEcqAf36TgYKdh1af0s1wBmcUgGJwtNqBgmYeHB9W+fXtII04mJkGRWwiIj9f9eiziBBofg5f/T9CZIMexY8Zu2r//wMRbN2+1O378hLPoiq9cuWRMLvgKjlKlSoVYWVnHsf8NKioDOeRrlQBiDyn8oqKecCb2QoOZkvTC+QvUtWvXUfu+cmoXM+NWi5YtLhS2v6lp+WS+cTXwvcdSqYM+T37IYMZsr7r9B/taWCon3VDcB1wa6HvGwfKERbG5hXgB45AOknktXIWqgUHBlLiKIKknSfP07L0VCgKCtUKT+hxoc/pjx86ZUDeFvLJ0D5lbgJz8IVFZJJaTO3bsePR7uUflypVL+RYEx5QpU5azxYaVlRW1c+dOateuXVTPnj2J2CAoSvMymWLUCUpISIB4K5226cmTJ9oVHGGhYfYTJ/qu8fdf6x8d/WwspLVERMFFtgIkKj5+/GjCJtScSBD6n5m5WQL4jrP/PS0t1VKTbDkA8G+LiIigf5fVCdDJoID2wEpxbGwstX//fvp3rv7xjBiBkNatWwcXtj+uJs3V+gRthe3t2wTbw4cOu+rjxI+JiTHM/JhZlk8dCjqo28JCaYwFpMSFlX0cC8Tl+AAzFQUFNYWsXg0PxftfbJOlpaVayzIDBw0Mbtq0SQS2ePGtQp43l9N6bd2ydSF5Zeke5qyEBhlKUpLrGypXrlwgXiA6Otr4GyY2TMFhXtSu4fDhwx3CwsK6McVG48aN6RS/DRo0IBORoMhBUZIeIQi/Jnj48KF2BAcE9c6aOXvhokWLt0sfScHc7ITdieBFH/U4qmlQULCjmBf7+tVrOz5kRL5ab2hAVa9WLbrgi+SZMWSpguvgkxaXGZx9JfwKvJjoz7m6hggBXJ8AakYg0kW9iX/LW6AVMyxGtWzZ4lK9epJCo5VsbCq+wgSba98Vz6s67awN0coHSUlJ1h8zP3rw6sNixUKRGFNKuml3k1zurm7YxwkJDtEsHHilk7OrHCV3cQKXKrUD2gcPHryqVKlStLjl446Ixx/MgTt3Ip337Nnbjby2dC44EhQtGuk7FAQoSxISEip9i/fI1NQ0n4Xj2bNn9YvaNezatWs6xbJsrF69WmvxGbp41xN8+7C3t88XS/X48WOdtkeI+jwqBYdUKi3zy5Klk2fPmnPg1q3b80Bo4FVs/HIHso1Io9P58+f7iXmxiMjTSxVcA7sxYYKtDusG4hWdtLQ0Dz7EHAPXBIBMAidOnKQ/MzIy0qhmCF+xAdiyeQv111/XqS9f8x6EXOtu0PsbUKGd3ToHqPWCrmT7AvVzKHyXqyDE4ygm5qX97l27PfRPcCTb8MnOIHPhy2zWrKlSwUGnxDXknqwgJwdbT8RJiRv9NNoY8t5rYqUzNja+hMRWrLr7N2jYIKVX7155rlVf+LlWMcS/M6TDvH3rti15bemP4IBaR0Wh3WjcFhDKUC/nW7xHNWvWhGVLueuGLOC6yCAiIqImxGAyP1u6dKlWC6UlJSWRyU4gOBo1anSN+fe1a9d01hbwmJGlDBdecIAbya/r1g+fNnX6kbCwsDWIELpAHACjlkUBwv3g7wctgoPPiuKLv2/vvm7wUOHqeoJJCACR8UsNGzQocMfQS9AS78c3hgOfA/rh/Lnz1Dm05SPvIgLOzRQb27fvoE6eCESf/xc4zmlA5AlIqk2b1kHNmzePU+c7Tk5Oz62trWPhu1xXp3GAO5DEo0ePjb5zJ9JGV5MKnd+lwMskMbEiH5ELm6mpqUqXp8R3iRXZY0id+4PHqaVlBVFS4gIxzMjI6IWvhafYymjYsGEKl+8NGeIdWL9+/dvFihej+J4bz+Mv2V9ct27dNo+8tnQHdkAy1HV59uyZkb63+/Pnz8YKBHTmt3iPOnbs+EDR+1/X7Vq9evXoVatWjcWbsv3Onj07gGJYN6AYH7hTaRMvXrwgk51AcNSrV+8mczHgzp071OvXr3XSlqCgIEGOU+DBsmP7Dk+/KVOPoxNs//TpkxuzNoUiwo8DPYsXK+504viJkUJf6JMnT0wCAwOHojY484lFkLm2QAHB+7CKWoD0IUKpbn0FdYgzHGf79u20v5sygSYUsAUFu1Ft2riJOhhwkHZr4VLXAQMLFIjd8OjRYweX79aoUUPK91rxGMv6lOX2+++/L9DFhJo8ecryvyL+6qJgfNhwEQVMkmxpaanS5QmODftzWc3PG6uGQIDUCsrmA1jNhfHENxEAbHzjS4YMHbLC2LhECBZXfARHrswChIiT/Zo1/qPJq0s3kD0TpIyPJFeuXNF7V7e3b9+yLWNSa2vruG/1PrFSxUvQu6uFLttz8eLFBgcPHhx/6NChTbLNR9m+skBxOTw9teuZC8+b+/fvk8lOIDjc3d0LZFsMDg7WejtgQfvoUWHyaMjf6AcPHnIdNNDrwKFDh33AxYhJVguzLMC/fc35Sr18+VLwF/zGjZuWpqam9dIkxgLcNFr98EOIQtL3LrES30BVRTcGkJaSRq1etYZ6+vQpzp4jqJ8ntmpggfMm/g21ZPEv1MmTgXK3Eq5iA7vJoe+Gdu3WdU+DBvU5rU43bNjgGnyfTzVuPMZycnOoV/+8qj1xwsQ12ppMMS9iDEFsQBxSpUqVnisTHHxih8zNzVS6PKWk5NX34E7oaZJw3KyQ4/MFTomrrshiiy26/kgh6YCVoUmTxgk9e/bcgY4Vznss5crdPp2DzgR5hZwN0essaN8qOnXqVICJXbp0qae+tzs+Pr46+7NGjRolfqv3qTGrztK5c+f66bI9p06dGkoxrBYtW7ZUmikROAfzbzs7O622VdeBvATfNlxcXAKZfwPxF6IAHxeEhYWB14MwggNS3I4YPnL7ju075iQkJAzIyfnqoq7QYO6HX/DBQcFe+/cfcBeicb6+k1YhItgEH58POZNVe47v16+vwodWUlKiFd5PiMxSmDj/+++/1OJFSyDgnv4cB9iDUOB7Hvx9aC92oQoPD6dmzpxJ+/dhgsYndgSOBwKmevVqUT//PCqA6/cbNmp0DfXzUTgG36BfWrh+/eryGJH/MaPHbnoS9UTUINMLFy42mjVr9oGHDx5Oz87OdrWytnqlTHBwvRaAhYXyoGkQOunpeSlxuY4BOuOamVlijRo1RDGdvXuXaMuMfeIMSIlryd/68tPwn47a17W/W7xYcY2yVslc/Jx27tw1/cWLGJIqVwdo06ZNviW5qKiopvre5qIYOK0JHBwcQimGJer69es6zRj4119/uTH/dnR0VFqjCdz0mH9DtXBt4sqVK2SSE4gGWHxjzk0g/nv37tXa+dH8opYvXy7Y8QzBohEXFzccfOjzyJL6QkPRCx6RA6edf+ycDnEXGkxiuyHeQ3dLH0kdQMTg43MVG7KfoS7t8qtEJpJTUqyETGGLSRpsb968oRYuWATWIyrzQ6Y8PgIAwgGEgaq+Zmbekbuuyb4PATxr1vjTx4+L/Zcp+niJDZlYCR08eLA/n+u2s6uV1bhxo6t824CvV/Z9l+fPn4+dO3fu7tOnz7QSehI9ffrUePmyFROXLV22CQmKfjjo31yBG1BaWhqnbE14P+gDVYXvUlJTLN+/f9+PT3YvIPSm5U1Fi1SkLRwUX6sfFluauXsNHTpkRbHixS4x5zIv8Y829JD23LZ12zdZuE3f0bFjxyNUfrcqag6CPreZHTgtZjY4fYC3t/dp9mfbt2/XSdZARKbYvEHatGnTcHW/r81aG/BsOXv2LJnkBKIB4mPZz5/ff/8dLHtaOT+EBwhl3aAFR9u2zqexuw8focEEwwXCGVYVly5dNpFLABrEa/ivWTt68aIlW//9919vIJ58YytwcC16ACWPHv2z0hX7tNQ0M00yVCkjztjK8PHjR2r7tu3U3LnzqLCwcFoxYgsFrpGBSSeuS4HvA7a84H0BL56/oP74Yyc1c8ZM6lzIOTkB5XsN2N0LXFj69PHcXFhVcVVwbut8Bh2PJol8K63ja4ctJSXVc93adavmzpk359atWxpnHHr06JHppk2/ec+cMevQ5cuX14E4xnEC0F72xH78+HGZzMyP3LI15f7nnqZqlT81Nc3y06dPnO4bcy6YsQJyhURqaqolF5HFbB/OoKVuDQ5laNasWXyvXj23wbjEixl8BSzMKTR+XPaSVLlaR5cuXW6yPpKEhIQMuHr1ak19bK+CAGVpt27d9mhyzOzsbL0PlGdZoiSq4ibExIkTJ4ZTDHeqKlWqRNevXz9N3e9/+PBBa229cOECxJCQSU4gKsaNGzeHvWizbNky0dMxQ2zSnj17mAsvMB81OmZxKOx24sTJEAgQ1zRwGosOWdYhp9A/Q53+vv93q/bt2wc6Oja/1LhJY4UrRZcv/ym5c/uOy/Xr1zvhQmiauHTg70I8Qrfu3XYp24+uwZGaYilWkT7cF3QWrwcP6BvYqFEjqmWrFlTDBg2pSpUrUaVLl1ZJpuC77xLe0b6it+/coW7dvAmpWvMRKr4DD7urIEET2rRZ0/ARI0cc0lSNN23aNOL27dsdNOlTLNhkosXpxo0bTuiYLmBa/8Hph3OdO3eK5CJipdLHDnfv3nW6f+9+ayQA3Zltw2S2bNmyEBORb3wmJ9PZmrpxyWCWS8mzooWqIt1JSYk2nJMgUAZyS5aFhoReFaAiNK6nwYfgw09FqUW5YuSokYfu3rvnFP30mTNF5fJyq2RmQTt06HBmXYnktoNDs3iKQGvo168fDvzFRFKycOHC7YiwtdO3trLaSWPChAk7uRyjRIkS+Yp2YSupPqNHjx47rly54o6vHWoE+fv7j5o8efJWbbUhNDTUnhUELh04cOA6LsdITk4G66robQU/+l9//ZVMbgLR4eHhEREcHBwOWarw/ITf582bRy1atEju9SIkoqKiqPHjx+dbeJk9e3bvvXv3+qE5Opy34KhjXycTyOb1a9fdhCLe2P0HXvZJSUn9jhw52u/UqVMhtra2L62sKsSZmJiko32MYJU3Pj6+yps3b6qArzVTYGhSwwKvrlerXi3K23vwaWX7QQ2OjPQMUVc96b4wMJQTMiw8wPSL2kdVq1qVsq5YEVasqVImJlQx1G9ZWVnU+/R0KvHdOyo2No6KeRlDxb6Ozeeugy0jfO8Zzt4FsLX9X8zy5csEcTnp2q3LzsjISCckgjrARNBEhWOLGVxjdnZ2h2vXrndAL8Uu+/fvf16zRg1p5SpVoqGwXtkyZdJKGJfIhDGVmfmxLGRZgjH1Gr28Xr16XSM1NbWXoSEinWA9YRSmw/0AKIOOYW9vny/1JaTE5RM3BEACJq1BgwZKbZGJ75JsOLsKGfwnOixFEhxgBUKCw5xvmmj4DiJcFywrWMYK0Z6hQ4eumDtnboMvX77ytnbi+YJIgtsfO3bMQYJDJ6u33yumTp362/nz5/sgEisn8kBo/fz8lq5evXqWvrRzxIgRW9ifwYIc1+OULFky33OkKNQfadu2bZSVlVVcQkKCXBQeOHBgoru7+z72c1EsIAK1my32PD09Q1V9h9Vm6u7du1oJHN+9ezeFzksmN4FWsGXLljEODg6PmJ+hZyotNubPn8/bo0QRwF1/1KhRtDcOFhsQvI62KE3jR2hp5Ozc5kzE1YguYJUQqnYEXonFx/v0KcsNLkRZ8RBMJDR1b8IWBYSIQQMHqlyCgIBxfE6hgsYV9kVuDpXz5T+3EOgPJHagdgm94f6GYoH433FRRXm2oBzULwa58mNoWlRQtuoLxDhwwsSJM4S61h9++OElGpinL1++XAwCwDUdT0xrR25e9iGnN/FvYKNyr0ZQOV9zqOJGxeX3D9K5MlPN4jSplGFunutZTv6YCUxiTcubFhAHOFsTn/ghc3PVRfnQsW2x6FNXlDHikkBwiFKDIzkp2SojI8Odr9gAgBtj7dq1s4Roj6Nj87iePXvsOH78BMXXxZIZJxMd/az+unW/Dvf1nbiDItAaEJkcNWnSpJMMQikJDQ0FdwGTjRs3+uq6fcuWLZt479691izCKx0wYMAGnoJDio/FDmzW43s0At2Ps8x7tGDBgj8OHjzYX+xz9+nT5wirn6Q///zzosK+17Bhw2sXL16UB7lDRp2+ffuK2lZ0PiCATNGTT3yg57kRmfEEQmPGjBk+y5cv38R8RkGa3NTUVGrWrFlUxYoVNT4HHA+CxBlig4ZQC0M0K4PiP3Z2dg9ALfHxlVb1osdZmYCLMFfoMQHAn+P4BU1IPya3iMSBK9XOti5to1STvkRbTOrFEhtsEYazTGFyxozZALIMGxYTzFgOIMuaZrmSq0x0n+EYUAzRd5Lv1CZKXN14T4yZ03+FFXicElgI4PHBTNcqq4hOfw79xoxF+m985fUdDrxn9x3er4ICiwGMDzaZVod0ywSHyj5NTkm25HJc5rERoQmxsDAXxcKRlJRkw1wA4Co2aHcvC3NBx9PoMaP3Va9ePUqT8YQXFXJycp3PnD7jff7ceb3PlvQtoU2bNtHoPXOUYtXlgIxIw4cP367Ltm3YsGHYsWPHRikSGy1atODspF+rVq1s9menT59upe/3qGXLlq+6du26h3mPnj171kDs+wNJBGJiYiQUK3Zj5MiRhbr4Ojk5hVD5K6XTVg6xAB4KiPjJ/0bjAzIJ5dsnKyvLmMx4AqEB1j5fX9+prGcoZHWj0LylU+byXdwFwTxp0iTaTYslNqS//fZbJ6GuQf727tixw1GoV8E3931hL3tMCjHpw+Q5O/uLYIXxcKVrEE/qrGAm0ivYhoJfr7pCDBNkTCTZGyba0G9C9BEOVsfxLb6TJk5zdm4TLcY1ensP9kdtj2DEYggq2pguUQU3w3x9rIw8M60X5hYWBSwGCe8S5DU4uBT9k9XgUEm601JTLfha88qVK5fCJZCSC7BVh0/2LHXFFh8MHTZ0BTyf+AaQ47lUrBg93513797tpw8Vlb8nLF++fH6jRo2usUXH/fv3W7m6uv557tw5rYtAHx+f9TAW2GID2jllypTNfI+LRAezgrdk1apV64rCPVqwYMEKdiFAuD/QT2Kcb9++fe6QRIDd/wsXLhymzve7det2jf3Z0qVLRQkeB8vGsGH5miX18/MrVrJkye7MD1+/fm1HZjuBGPDy8gqePHnyFLbokD1fafG7bds2pZ5ETEDSGrAyg4B2d3dnp3iWmpmZhQYEBDR1dHQUrOip/IXr2cfzUtWqVaKBHIoRhMIm3ELDyKi43EVozNjRc9X5DqTExRYWXQGTTmaWqsLS5fIVG9iNCsTGpEm+Uzt37hwp1nW5/eh2u0fPHjvQucJxTI8Yfae439TvO9z/FgpcoNJS0zhna8pz2aKDppVaIKKinpikpb0353qPsbWrvIgZqvJqcPAT4XnXYgDiTXDrS6tWLV+CaxVYL/nGl2DRIbvOAZBJj7zCtIsdO3aMYNd9ALKZkpLiMnv27L2wmg7Z4cRuR1BQkCOIHFkKXAnrRZsA7dTk+B06dDjBvEZwF/L29t5dFO7R+vXru7DvD/RTr169Tt67d0+wQheLFy/2W7du3Sp2/0+cOHGGqvg3Nvr27buJ2V4gWxMmTKAyMjIEaSfEVK5cuTKfZYOSuXxVr149h/08fvDgQQsy0wnEwsCBA0PQ3BliYmJyky084uLiaHe/Pn360BuMWX9/f7p2x+HDh6nNmzfTgebjxo2DwqwUEsy0kGZBisa1FJJ62NnZZQnZ9nwssHv37jsRCQqHFXUxCKJYyKsjkVcl22eczyx1V39TklOsmbEj3yqYhQ0hoHfqVD9fEARin3fChPE7mzk0C4WMTZqQRDH7BVs5FK3Kf/jwgTPxycnNEzwVrKyUrgq8f//eLC0tzYOLFYEpekxNTVPE6hMIuGe6P3IXzzkqxZYmGOszdk+1atWe8i0uyRSYYPn6K+Ivt4CAg27kFaZdoJeejywNK3uVDlbThw8ePPgGBHAfPXrURehznz171sHDw+PU/Pnzd4LIYZNd/KLV9DwK3IEkUqnUYejQoX+cPHnSSZ/vT+PGjROR4GrLFh2vXr3yQPclbM2aNaM1OT4iOA3gHgQGBg5j9z+QeHT/T3M53rRp035jWWXoxCywartv3z7e1g5YAQ4JCaGGDBlCkzVmO5GgmYHvsezdkU9cLl++fDyZ6QRi4ccff7wdHh7egl0YkAkQ3iAmDhw4QGdUA9EMdTVOnToFxT0LxGnIjiNFc3PnkSNH+ojC1fMJDo/uEdeuXw+NvBPpzKsgmY7EhmylOGKsz5g57du3k3IgVxZC1+DQN2DhKFsZPzpp8qSpsFqsrfND9iufsePWR0dHU0IEkQstOAClSpWCVfl8giMyMtKKT7YmLGAqVLBUKjiSk5Lkwehcjo3Hqrm52Vux+gTEEB9xiK8HNqsKFeLEat9gb6/VCxcssoc0t4wEEdxEIWqj7LnhfGD/gcy69vaRjQuJY4JipFFRT5qWK1s2ubiRUTbUVsjIyDCVSOrehkQJd27fsXn8+LFDc8fml+rUqZPvSX7u3Pmm6ahfwYpMXpV5WLt27VQkPCLRCxAXAWQST8m9e/dgaw1uAs2aNQtv2bLlhZo1az5wdnbm5AKKnjvGUN08NDTUIywsrJuCc8lftpCJRcisWXPmzBm1ZMmSrYzzSR4+fAhbC/Q5pEi/hsR5XOnSpdONjIyy0PVJ+/TpoxdjBLWNFh3Dhw8PY/WZJCAgYDxs7du3P+7m5haAfhb6zkXXbAqpzffv3+8LGcoU3AMpIvBL1InbUIRVq1b18fHxYQa804Rq3bp11NatW2nRgEgaHeCtyoMDnifPnz+nzpw5QyFhqJCU/fLLL4OZ3gGQDp4tLpFYHh0cHOwFRQshiDw1NdUCiZ/BZOYTCInZs2f7g6EACQR6vKl4vqmCFAS7t7f3qhEjRhwVla8XeKEP9lr19MnTRoh4eED2ny/ZX/Syo3EAqUwshPv4jJ0P+YrVfhE9jTaGdIV8BAdeGddnsYKD4XEQfc1aNaW+vhOnssmQNrDpt40Txoweuwke5PokOgwN0T3MMaBKlzY5xCbxUIPj06dPrkxhwkHAhJQvb6bU7QnHSXAVMnSmMjTexMpQFfMixhDNe16lepkiRVWFdU0BwcdQiC0oKCgHxhLfhA9g4QDikZWV5YaI1awNGzeozJT0+tVruydRT5p8+JBR9smTp2Pr2Nf5DVIpQzwN+ueXZ4KCvJHoWI5Ex/xflv6yiEm0Vq9avRZ+r1a9mtTBwYHUAJFh9OjRAbBNmjRplcx/mP2ixDnnJWgbzVzJs0ciEVaW4UUJKagRaU/7+PFjGUizHhsbW5NVz0FS2Mt21KhRC8E/Wsjr69GjR8SbN2+WyESVhN2e+/fvFyDdSHDU05f7A6IDiYR6EyZMWAOBqUzRAf+5fPmyBG294HcI8raxsXkFAgossOjZWSotLc0csvFBDIgqoQcubEiADeEToI8B3/3111+7T5w48RT7XCAaoDozbAAQHVDAzNbWljI2NqZrd6D7RLujqKiqTI8TJJR7QFFS9j+CW9fhw4fz1ZqB8169etURfx+NYRtF3yUg0ATgfoi2ZYsWLVoWERFRExZX7t271+rt27dVlGXIg3TSMGcrVar0vEmTJlcVFGhVJsgNFXEe3oJDIpFk/PTTsKVr1vhbGuYaOmlaS0EMwMomJqzogRHiM27sXDAxcTlGUnKSnFByFRuY4DAzJukLmO5TMkR06ND++PQZ0zfosl2/b/7Nx9d30irpIyktOvA91GXfyUIOqHLlTNPAF5clCmz5iEr4DnqBJtrbKxd2iYmJNkzRqva4M8gVtQZHalqqJRIc/XBGJ67jDoDI32nTcuK5fAEm+k7Y8ffff7d6/fq1CxYPfICtI0hANNq4YdOwceN9lBZ4GzhoYDBsV69ctVu/fsNYWA1iWgq/ZH8xguOhNtVEbTNr2LAh3QcREX+5o2eUMxAbqBNDXo8FAdYO9KLcvGXLlnngdqSCnMo/i4qKkmh4Wlq8oPu4mmthP66iqlatWg/9/f3XJCQk2PJYfdQ51q9fP+XixYu7VqxYsV6BdYL+HQk8Cceq23T/9+7de+vMmTMFqaAHlgYQSJB1TJYIQOE4gow8sKF91WonCKJBgwatGzp0aKCyncCtCwkXa9RPnkXkHkuL4lgkKHwOoM2f/Tl6XpqApU3TZDNo3lRi/g019TQSHIAuXbvcROpo3YEDB9E78quzvogOZl0PWLW3traOHT9+3GzHFo6cV0ZwylOuNTjk++fkUgaGcguCzskzFmKYIEM8CxBfr8Fe/t26db2mD5Nh3bq1UxcvXuIXFhpmCC4xzBgK3QiOvFV5cwvzAhaDRB41ODBJR/2epGq/xKSkingsc6nBgQP/xaoynpSUbA0BknytBlhs1ahZI1vse+flNch/yZJf7OEZy9e1Cs9lEMDHjx83ktST3CjMJbOEsXEmPA+NjUvkE5RZn7OMmzVriu7nV++wsPBQJDhoEvvo4aMWrq6udKpOkp+/0BflEPh9165dHkFBQV7sVKkCkSwK4jQ6d+58SGz3AQxIO4+2Tn/++SedBvjRo0cO4ObFt/26gOwa2kH8yYULF/rJgu0pHvdHLQKvCcaPH78TtsKER2HthHGCBKm/okxYigBZ2NC4DQLXPTTfW8vEGW39gU2RdQOsc9q+r4zFNV2MJ17nrFChwhs0Z6TaPq9Y1y7WoqEyCFW8U7ZoIr8esCxrLDgAPw3/6WhW1ueSx44do32dcayELsghu0Aa+ju8RYsWlxYvWbSE7zHBraWYYTFZkK965AoTSltb2z1durjvO3v27IC4uH+rQ0EyoQry8RVhOOZGJjrCnds6n54zZ7a/vhGLuXPnrK5Ro4b0YMDBTHBngf7S1djC4lVRkb53iYkVoao314KQdKyMWXmVMRapKamWXC0nWByVKVMm0EykLFVIZMlFOJ9xSAuOQtIBC4V2SBjciYzcd/7c+WxNXKtwPAcUPd2xfQfEgA1Utf/nz59LylJVl8wnOLKyTBCR8m3cuFHEieMnR6KPdgYFBTsaGRl9au7oQF2NuEpUhZoAIgrbs2fPjB48eNAqOjq6/pMnT5oyXHPUJZBS2QJAQv369W83btz46pAhQwJ1dV3t2rWTwsbnu7Byrw/3BtzEYIPfQXxERkY6w6onEBGWGxtefEmwsLB4W69evdtQpA/9vKmoTomYwgPcTOLi4qphVzskZOugv2uy9wc3EzRObkBbGzRocK1p06acn2XgmqKuewpg06ZNE3RxH3Uxnnx8fPbAxue7YAVFP6YW1bkD2Z70ZQ4LCcTlOJE2lflvx4wdvc+ktEn6nj30GHGWFYvTuEAfV6GBz4d+D7ewtIj39PTc7OnZO1STYyfJVpmpXPXbkrciWoyysraK69uv7wXYlv6ydHJoKB1X58KsOSG2xQPHsOC+ka2WR0gkkhu9evfaLFZ9DSEwaNDAYHjx7Nm9ZzpNInIpJzy2sHASq++wQIOfkI2tRAljhVmf0lJTLcHdijk+lPkrYjGAa0TAaoyqNqSlpZnxvb5y5col29e1zxCjb5KSk63wmOIjNsSqwaEMfn5TNj96+MgxLjbOBRd35AOcthkWIRbMXzhzwcL5y5TtW8zQ8GteFi/Dr6w+yEGioyS4dp45HeR9+PCRDg8fPnRs0cLxEiIyc7ORUjGgDCgC9QHEFG3h6Ndw5ufgCw++yR8+fCiLtnLwE/sqly5dGmI6kpEwfw+riJBxifSk+OJDnyEL6oaNJG0gIOAvUm00PUahBTeGDPEOtLW1fbHzjz9mvnuXaAOr+VgIiLEqjckgbLhoG5D80qVNTrdt63xm0uRJWwUhV0lJ1rkUt5XrPJIINRss5CvYs2bP8m/j3Ob0ieMnRt2//3crtJ8T7hMhCTSTKOPjyUQY/HNo/fr1bnfq1OmQNtLdCoHGjRslNm68Zuqxo8dcgoKCvV+9elUTi1pmzRBN+w6LBEVCEO5PeTPTQ02bNglnf+/Dh0zT/6pTq84mxYzHkGVpilW275OoJybv3+fV4IA2qRsrgY+PBMd7se4JrjuCxy2X+BLct9o2FQ8Y0H/j8uUraqN+dCpRogT9zGDfK0XXwd4Hu1ZduXLF6Nix49d69+4Vqvx6C94zQxCwnz/TFYabN3cIRWL6IhJfexYtWrjs6dOnxnS4kKHhV4pAY5DAWwICgu8FEH+Rnp5uBr9DNjtdLaLEx8dXoxiWZaQLngsuOAAdO3Z4gLaBK5avHB8aGgpxHR0wucIp5pgkmCsZxEQaAIQB/w0/zczMjjq2cLzk5tY5QMjqykmJSRW5urTg/a2trV4z/w0y56BtKqS/vHTxkufDhw8dsrOzXZlkB5NLZqE/ZW4gmMCy96fJuMzNB1ZlLSzMDzVs2OhmG+fWp6ENRXEy9fbsHQob1EO4Eh7+8OnT6Pro+pzZfQfxMqAPC0vXLF9tl+2PRTG2PsgIfmj16tWjHB2bX2rXrl0gO+YACvOBCR7HLqkrCvL2Mwi1YKXYZeJtQoJtVlaWO6Piu9p9hR42VMmSJUXLMgbXDOcAyw/XLFr0w6RYca1aOACdOneKREL/AJp32UzXRlXiQtn8hv3QfXHatHHTEmsrq2Gt27QuMKeyv2QboYc/9ZUVj5GZ+bHMly95QeHObZ1PHjgQEPo/2/+9pMVrxgfTjPSMiK8khoOAgICAgAO8vLxuMYi+VFeuWcAPmH/XrVv3riiCA2P6jGkb2rVzCUTEui/4bmZkZHRjknFMktXxe1dEpOH/QC4RqQqpWbOGtFmzZqGtfmgVIobPJ2SU4FL0D7tf0VWpLSwU+uh3RuQHths3blS5cf2G699/P2gVGxtbDQQaM+MRPh975ZzdDqhYjYuwyURYqJWVVSzqD2mDhg2uNW3SJLx6jeo538KkGjCgfwhsly5danDr5u32Uqm0KShqAwNDZwOZaxOz79i1Ith9Z5BrwBABdDazC0iRx9jb17nbtFnTUBcXlyhlbYEMUx1dOx5FRPECBAej+2SoaoQYUHmr3l++fimGSPdX9N37yvaFNKqtWrWahdqVY2ho8FXdsQf7ff6cXbJFS8fzYt0DsPRA0Hcpk1IZOaz0d4W1Lwfm8tevRpK6dbVuYZs6ze83E9TmmJiXN4obFc9CnWXIsJRlUwoER25OTjG4rwWvxTAH3HMePnrkoEhwVKxY8ZWrq+uIClb5a4384PRDcPFixWgLBvi19u/fb1O9+vVoX+4mTZskuLm5HbCuaP2KIiAgICAg4AmwmNeuXTtL2+dF3KwX8+86derc53oMA77uKpBf/s7tOy5Aqv/55x+7lOTkXsVYBXXUcWXAGZUgNqNqlarRiOxFQtCWQ3MH0YqHQdv9pkw9lp2d3UFdwYFFFAii+Qvm1VJQ7Echrl6NqPn0yZMmMTEx9nFx/9ZITU01R4TGA1dzZ5Nm3BYkuiDl2FFzc/NEm//ZvKxSuXI0rMq7tHORfi8T6/LlPyXR0dGN/nn50h6Jj8ppae/NP3z44MG0ginqO6iDUbpM6TRLC4sE20qVnletUiW6lp3dfUfH5nHkcUVAQEBAQEBQFODq6vpnSkqKC/57/vz5P6ibOU0oSKXSMt7e3jcohqVl69at7bgmVijOtwHg3oQ2yPgR+OTJU5OYFy+WQQ76f+PjqyW+S7RJT08vB5lbEDnsh4MyixcvdqhEiRJZJialM8H1wsqqQlxFG5uYSra2LxWtJooFSIn7+fPnDnyqKZcyKXXa0rKC2j7ErVs7PYftvxv3uExSUqIN+Mtnfvxo8hn10decHEMIOjUyMsouVbJkJl1QzNQ00cLCPKFmzZrZ3+tEgxSlzDSl0kdS06TkJKv3ae/NPmRmlkX30BhqG6DOy4Hqz0hopJcpU/q9WXmzxGYOxM+bgICAgICAoOiiatWqT5mC4+TJk8O1LTgCAwOHM8QGnX2OTxa34kI0pk6d2ploA1eKfO4UMTEvDRGh/gkItaFhHqHWBwIN2WggED0n5ysd7KmujQcER2mT0hlwvXzPLZHUhQxD0bKNgEvf1ZNADE8a6QkCAgICAgKCbx3NmjW7cu/evdaY8ENmTwgkF6q2RmF48OCB2bFjx0YxP/Pw8OBVLNVQzIZWr14tp459nUwg2dA5+rJaD5WekQDK841XU2hgd53y5cunkClAQEBAQEBAQEAgJsaMGbOP9ZFk6dKlv2vr/PPnz99J5a97JHVzcwvQO8Ghr0hKTKzI9TvY/aqCipSnBAQEBAQEBAQEBEIBClIy/5ZKpQ4+Pj7rxT7vrFmz5rEKekp79+69lW8ip+9ScCQmJdlwTd+Ls94UVtSNgICAgICAgICAQAj89NNPUIyWmTBIcuPGjQ4zZsxYKNY5fX19V50/f74fxbBumJiYZMycOfNXvsf8PgXHu0QbppAoDMx0tpYVLImFg4CAgICAgICAQHQ4OztHy+Im8omOixcvei5evNhPyHM9fvwYMlLtvnr1qjvFcqWaN2/eCE2O/d0JjhfPXxhlZGSYck0HDOIEsm1ZqijqRkBAQEBAQEBAQCAk5s6du1pW3Tuf6AgMDByGBMmNjRs3emt6DhAvgwcPviGVSr3ZYmPatGkTOnbs+ECT4/Ouw1FUcfPmLdu5c+bGQi0HgNpF/6i84nG/LF3i1aRJEyI6CAgICAgICAgItIb+/fsffPbsWQOWIKCwEHF3d9/n4eGxq1kz9UoDBAQEuIWGhnrcuXPHGYsY9nHnz58/QohUvN+d4AgOPuuwZvWaW3R6KgP1i/4BypYte/rEyePdyZAnICAgICAgICDQNiZNmrTqypUr7grEQT7xAbCysoqrXLny8woVKsR9+fLFKDExsWJycrI1ZGvNzMwso0Rk0MeA786ePXuMuoWuC0Px7+1G5aXENaTdowyowgv/YesG/DQ1NU0kQ52AgICAgICAgEAXWLt27dSIiIjN69atWx4TEyNRIBjkfyckJEjQ5srh8FIIDh81atRCLy+vYCHb/d0JjiQkOEBogIDgEjQO+1qQ+A0CAgICAgICAgIdAqwOaOsTFhZmf+nSpZ7BwcFebLHBRWTAf1q0aHGpdevWwQMGDAgRo83fo4WjYi6Vq7bYwID9LS0t4skwJyAgICAgICAg0DXatm0bhbZlixYtWnbv3j3LN2/eVElISLCFLT4+vtrbt29tX716VRu7T5mZmSVYWFi8hQV08NoBtykHB4dQJDSei93W705wvHuXaAs/1RUb2KUKYGFpSWpwEBAQEBAQEBAQ6BUaN24Mbv+wRepj+747wZGWlmYOWgOERE5OTuFfQPvm5ObtB6qQDGkCAgICAgICAgIC9fFd1eGQPpKafvz40YRWEWqC6X5lSSwcBAQEBAQEBAQEBERwKENScpIVEhzufFIBQw0OJDhIDAcBAQEBAQEBAQEBERxKBEdSshUtNjjqDbBwlC5dOr1ePUkaGTIEBAQEBAQEBAQE6uO7iuGAYie0e5RBnpsU1OMozNqB9zE3NycpcQkICAgICAgICAg44ruycLx986YyzjoFAePquFZBgcBixYpR5UzLpZDhQkBAQEBAQEBAQMAN35WFIy0tzRJ+co3hQPuHVqlSJZoMFwICAgICAgICAgJuMOATQF1U8fTpU+PU1DTLYsWKgXmjcKEBHUTRaXENmzdvHkeGCwEBAQEBAQEBAQERHAQEBAQEBAQEBAQEegJD0gUEBAQEBAQEBAQEBERwEBAQEBAQEBAQEBAQwUFAQEBAQEBAQEBAQEAEBwEBAQEBAQEBAQEBERwEBAQEBAQEBAQEBERwEBAQEBAQEBAQEBAQEMFBQEBAQEBAQEBAQEAEBwEBAQEBAQEBAQEBERwEBAQEBAQEBAQEBAREcBAQEBAQEBAQEBAQEMFBQEBAQEBAQEBAQEAEBwEBAQEBAQEBAQEBAREcBAQEBAQEBAQEBAREcBAQEBAQEBAQEBAQEMFBQEBAQEBAQEBAQEBABAcBAQEBAQEBAQEBAREcBAQEBAQEBAQEBAREcBAQEBAQEBAQEBAQEBDBQUBAQEBAQEBAQECgX/i/AAMAUOEBfXp21EMAAAAASUVORK5CYII=;" parent="1" vertex="1">
          <mxGeometry x="1130" y="234.5" width="258" height="70" as="geometry"/>
        </mxCell>
        <mxCell id="VL3Qhbk6M924IcoiZEVy-4" value="" style="endArrow=classic;html=1;exitX=1;exitY=0.5;exitDx=0;exitDy=0;strokeWidth=2;" parent="1" source="OFxEvMyeNEJS5PdYJFAr-1" target="OFxEvMyeNEJS5PdYJFAr-4" edge="1">
          <mxGeometry width="50" height="50" relative="1" as="geometry">
            <mxPoint x="320" y="470" as="sourcePoint"/>
            <mxPoint x="370" y="420" as="targetPoint"/>
          </mxGeometry>
        </mxCell>
        <mxCell id="VL3Qhbk6M924IcoiZEVy-6" value="" style="endArrow=classic;html=1;entryX=0;entryY=0.5;entryDx=0;entryDy=0;strokeWidth=2;" parent="1" source="OFxEvMyeNEJS5PdYJFAr-4" target="OFxEvMyeNEJS5PdYJFAr-5" edge="1">
          <mxGeometry width="50" height="50" relative="1" as="geometry">
            <mxPoint x="550" y="480" as="sourcePoint"/>
            <mxPoint x="600" y="430" as="targetPoint"/>
          </mxGeometry>
        </mxCell>
        <mxCell id="VL3Qhbk6M924IcoiZEVy-7" value="" style="endArrow=classic;html=1;exitX=1;exitY=0.25;exitDx=0;exitDy=0;entryX=0;entryY=0.25;entryDx=0;entryDy=0;strokeWidth=2;" parent="1" source="OFxEvMyeNEJS5PdYJFAr-5" target="VL3Qhbk6M924IcoiZEVy-3" edge="1">
          <mxGeometry width="50" height="50" relative="1" as="geometry">
            <mxPoint x="1000" y="560" as="sourcePoint"/>
            <mxPoint x="1050" y="510" as="targetPoint"/>
          </mxGeometry>
        </mxCell>
        <mxCell id="VL3Qhbk6M924IcoiZEVy-8" value="" style="endArrow=classic;html=1;strokeWidth=2;exitX=0;exitY=0.75;exitDx=0;exitDy=0;entryX=1;entryY=0.75;entryDx=0;entryDy=0;" parent="1" source="VL3Qhbk6M924IcoiZEVy-3" target="OFxEvMyeNEJS5PdYJFAr-5" edge="1">
          <mxGeometry width="50" height="50" relative="1" as="geometry">
            <mxPoint x="1000" y="470" as="sourcePoint"/>
            <mxPoint x="1050" y="420" as="targetPoint"/>
          </mxGeometry>
        </mxCell>
        <mxCell id="VL3Qhbk6M924IcoiZEVy-9" value="&lt;font style=&quot;font-size: 16px&quot;&gt;读取kafka数据进行计算&lt;/font&gt;" style="text;html=1;strokeColor=none;fillColor=none;align=center;verticalAlign=middle;whiteSpace=wrap;rounded=0;" parent="1" vertex="1">
          <mxGeometry x="900" y="231" width="208" height="15" as="geometry"/>
        </mxCell>
        <mxCell id="VL3Qhbk6M924IcoiZEVy-10" value="&lt;font style=&quot;font-size: 16px&quot;&gt;将计算结果推送到kafka中&lt;/font&gt;" style="text;html=1;strokeColor=none;fillColor=none;align=center;verticalAlign=middle;whiteSpace=wrap;rounded=0;" parent="1" vertex="1">
          <mxGeometry x="900" y="269.5" width="208" height="15" as="geometry"/>
        </mxCell>
        <mxCell id="VL3Qhbk6M924IcoiZEVy-11" value="&lt;font style=&quot;font-size: 16px&quot;&gt;解析binlog日志推送到kafka&lt;/font&gt;" style="text;html=1;strokeColor=none;fillColor=none;align=center;verticalAlign=middle;whiteSpace=wrap;rounded=0;strokeWidth=3;" parent="1" vertex="1">
          <mxGeometry x="440" y="251.5" width="208" height="15" as="geometry"/>
        </mxCell>
        <mxCell id="VL3Qhbk6M924IcoiZEVy-12" value="&lt;font style=&quot;font-size: 16px&quot;&gt;监控binlog日志&lt;/font&gt;" style="text;html=1;strokeColor=none;fillColor=none;align=center;verticalAlign=middle;whiteSpace=wrap;rounded=0;strokeWidth=3;" parent="1" vertex="1">
          <mxGeometry x="170" y="247" width="208" height="15" as="geometry"/>
        </mxCell>
      </root>
    </mxGraphModel>
  </diagram>
</mxfile>
